<svg width="48" height="49" viewBox="0 0 48 49" fill="none" xmlns="http://www.w3.org/2000/svg">
<rect x="6" y="6.89258" width="36" height="36" rx="18" fill="#D4E9F2"/>
<path d="M31 16.8926V27.1886L30.4566 26.9462C29.7655 26.6379 28.9861 27.1437 28.9861 27.9004C28.9861 28.3036 29.218 28.6708 29.5821 28.844L31.5139 29.7631C32.1804 30.1338 33 29.6519 33 28.8892V16.8926C33 15.2357 31.6569 13.8926 30 13.8926H24C22.3431 13.8926 21 15.2357 21 16.8926C21 17.4449 21.4477 17.8963 22 17.8963C22.5523 17.8963 23 17.4449 23 16.8926C23 16.3403 23.4477 15.8926 24 15.8926H30C30.5523 15.8926 31 16.3403 31 16.8926Z" fill="#163746"/>
<path fill-rule="evenodd" clip-rule="evenodd" d="M25.5139 35.7631L21 33.1397L16.4861 35.7631C15.8196 36.1338 15 35.6519 15 34.8892V22.8926C15 21.2357 16.3431 19.8926 18 19.8926H24C25.6569 19.8926 27 21.2357 27 22.8926V34.8892C27 35.6519 26.1804 36.1338 25.5139 35.7631ZM17 33.1886L20.0278 31.3919C20.6323 31.0556 21.3677 31.0556 21.9722 31.3919L25 33.1886V22.8926C25 22.3403 24.5523 21.8926 24 21.8926H18C17.4477 21.8926 17 22.3403 17 22.8926V33.1886Z" fill="#163746"/>
</svg>
