<svg width="19" height="23" viewBox="0 0 19 23" fill="none" xmlns="http://www.w3.org/2000/svg">
<path d="M16.0059 3.90967V14.2057L15.4625 13.9633C14.7714 13.655 13.992 14.1608 13.992 14.9175C13.992 15.3207 14.2239 15.6878 14.5879 15.861L16.5198 16.7801C17.1863 17.1509 18.0059 16.669 18.0059 15.9062V3.90967C18.0059 2.25281 16.6627 0.909668 15.0059 0.909668H9.00586C7.34901 0.909668 6.00586 2.25281 6.00586 3.90967C6.00586 4.46195 6.45357 4.91335 7.00586 4.91335C7.55814 4.91335 8.00586 4.46195 8.00586 3.90967C8.00586 3.35738 8.45357 2.90967 9.00586 2.90967H15.0059C15.5581 2.90967 16.0059 3.35738 16.0059 3.90967Z" fill="#666666"/>
<path fill-rule="evenodd" clip-rule="evenodd" d="M10.5198 22.7801L6.00586 20.1568L1.49197 22.7801C0.825427 23.1509 0.00585938 22.669 0.00585938 21.9062V9.90967C0.00585938 8.25281 1.34901 6.90967 3.00586 6.90967H9.00586C10.6627 6.90967 12.0059 8.25281 12.0059 9.90967V21.9062C12.0059 22.669 11.1863 23.1509 10.5198 22.7801ZM2.00586 20.2057L5.03365 18.409C5.63817 18.0727 6.37355 18.0727 6.97807 18.409L10.0059 20.2057V9.90967C10.0059 9.35738 9.55814 8.90967 9.00586 8.90967H3.00586C2.45357 8.90967 2.00586 9.35738 2.00586 9.90967V20.2057Z" fill="#666666"/>
</svg>
