<svg width="14" height="15" viewBox="0 0 14 15" fill="none" xmlns="http://www.w3.org/2000/svg">
<path d="M13.0304 1.13368C12.6404 0.743677 12.0104 0.743677 11.6204 1.13368L6.73044 6.01368L1.84044 1.12368C1.45044 0.733677 0.820439 0.733677 0.430439 1.12368C0.0404395 1.51368 0.0404395 2.14368 0.430439 2.53368L5.32044 7.42368L0.430439 12.3137C0.0404395 12.7037 0.0404395 13.3337 0.430439 13.7237C0.820439 14.1137 1.45044 14.1137 1.84044 13.7237L6.73044 8.83368L11.6204 13.7237C12.0104 14.1137 12.6404 14.1137 13.0304 13.7237C13.4204 13.3337 13.4204 12.7037 13.0304 12.3137L8.14044 7.42368L13.0304 2.53368C13.4104 2.15368 13.4104 1.51368 13.0304 1.13368Z" fill="#666666"/>
</svg>
