<svg width="16" height="16" viewBox="0 0 16 16" fill="none" xmlns="http://www.w3.org/2000/svg">
<rect x="0.4375" y="0.470703" width="15.123" height="15.123" rx="7.56151" fill="#2E7FA1"/>
<path d="M8.62996 6.14266C8.62996 6.49066 8.34784 6.77278 7.99983 6.77278C7.65182 6.77278 7.3697 6.49066 7.3697 6.14266C7.3697 5.79465 7.65182 5.51253 7.99983 5.51253C8.34784 5.51253 8.62996 5.79465 8.62996 6.14266Z" fill="white"/>
<path d="M8.41991 7.61295C8.41991 7.38094 8.23184 7.19287 7.99983 7.19287C7.76782 7.19287 7.57975 7.38094 7.57975 7.61295V10.1335C7.57975 10.3655 7.76782 10.5535 7.99983 10.5535C8.23184 10.5535 8.41991 10.3655 8.41991 10.1335V7.61295Z" fill="white"/>
<path d="M7.99983 12.654C10.5519 12.654 12.6208 10.5851 12.6208 8.03303C12.6208 5.48097 10.5519 3.41211 7.99983 3.41211C5.44776 3.41211 3.37891 5.48097 3.37891 8.03303C3.37891 10.5851 5.44776 12.654 7.99983 12.654ZM7.99983 11.8138C5.91178 11.8138 4.21907 10.1211 4.21907 8.03303C4.21907 5.94498 5.91178 4.25228 7.99983 4.25228C10.0879 4.25228 11.7806 5.94498 11.7806 8.03303C11.7806 10.1211 10.0879 11.8138 7.99983 11.8138Z" fill="white"/>
</svg>
