<svg width="9" height="15" viewBox="0 0 9 15" fill="none" xmlns="http://www.w3.org/2000/svg">
<path d="M2.0638 3.37815C2.80018 3.37815 3.39714 2.7812 3.39714 2.04482C3.39714 1.30844 2.80018 0.711487 2.0638 0.711487C1.32742 0.711487 0.730469 1.30844 0.730469 2.04482C0.730469 2.7812 1.32742 3.37815 2.0638 3.37815Z" fill="#666666"/>
<path d="M2.0638 8.71149C2.80018 8.71149 3.39714 8.11453 3.39714 7.37815C3.39714 6.64177 2.80018 6.04482 2.0638 6.04482C1.32742 6.04482 0.730469 6.64177 0.730469 7.37815C0.730469 8.11453 1.32742 8.71149 2.0638 8.71149Z" fill="#666666"/>
<path d="M3.39714 12.7115C3.39714 13.4479 2.80018 14.0448 2.0638 14.0448C1.32742 14.0448 0.730469 13.4479 0.730469 12.7115C0.730469 11.9751 1.32742 11.3782 2.0638 11.3782C2.80018 11.3782 3.39714 11.9751 3.39714 12.7115Z" fill="#666666"/>
<path d="M7.39714 3.37815C8.13352 3.37815 8.73047 2.7812 8.73047 2.04482C8.73047 1.30844 8.13352 0.711487 7.39714 0.711487C6.66076 0.711487 6.0638 1.30844 6.0638 2.04482C6.0638 2.7812 6.66076 3.37815 7.39714 3.37815Z" fill="#666666"/>
<path d="M8.73047 7.37815C8.73047 8.11453 8.13352 8.71149 7.39714 8.71149C6.66076 8.71149 6.0638 8.11453 6.0638 7.37815C6.0638 6.64177 6.66076 6.04482 7.39714 6.04482C8.13352 6.04482 8.73047 6.64177 8.73047 7.37815Z" fill="#666666"/>
<path d="M7.39714 14.0448C8.13352 14.0448 8.73047 13.4479 8.73047 12.7115C8.73047 11.9751 8.13352 11.3782 7.39714 11.3782C6.66076 11.3782 6.0638 11.9751 6.0638 12.7115C6.0638 13.4479 6.66076 14.0448 7.39714 14.0448Z" fill="#666666"/>
</svg>
