<svg width="49" height="49" viewBox="0 0 49 49" fill="none" xmlns="http://www.w3.org/2000/svg">
<rect x="6.66797" y="6.88623" width="36" height="36" rx="18" fill="#D4E9F2"/>
<path d="M18.668 22.8862C20.8771 22.8862 22.668 21.0954 22.668 18.8862L22.668 15.8862C22.668 15.3339 22.2203 14.8862 21.668 14.8862C21.1157 14.8862 20.668 15.3339 20.668 15.8862V18.8862C20.668 19.9908 19.7725 20.8862 18.668 20.8862H15.668C15.1157 20.8862 14.668 21.3339 14.668 21.8862C14.668 22.4385 15.1157 22.8862 15.668 22.8862H18.668Z" fill="#163746"/>
<path d="M22.668 30.8862C22.668 28.6771 20.8771 26.8862 18.668 26.8862H15.668C15.1157 26.8862 14.668 27.3339 14.668 27.8862C14.668 28.4385 15.1157 28.8862 15.668 28.8862H18.668C19.7725 28.8862 20.668 29.7817 20.668 30.8862L20.668 33.8862C20.668 34.4385 21.1157 34.8862 21.668 34.8862C22.2203 34.8862 22.668 34.4385 22.668 33.8862L22.668 30.8862Z" fill="#163746"/>
<path d="M26.668 30.8862C26.668 28.6771 28.4588 26.8862 30.668 26.8862H33.668C34.2203 26.8862 34.668 27.3339 34.668 27.8862C34.668 28.4385 34.2203 28.8862 33.668 28.8862H30.668C29.5634 28.8862 28.668 29.7817 28.668 30.8862V33.8862C28.668 34.4385 28.2203 34.8862 27.668 34.8862C27.1157 34.8862 26.668 34.4385 26.668 33.8862V30.8862Z" fill="#163746"/>
<path d="M26.668 18.8862C26.668 21.0954 28.4588 22.8862 30.668 22.8862H33.668C34.2203 22.8862 34.668 22.4385 34.668 21.8862C34.668 21.3339 34.2203 20.8862 33.668 20.8862H30.668C29.5634 20.8862 28.668 19.9908 28.668 18.8862V15.8862C28.668 15.3339 28.2203 14.8862 27.668 14.8862C27.1157 14.8862 26.668 15.3339 26.668 15.8862V18.8862Z" fill="#163746"/>
</svg>
