<svg width="17" height="23" viewBox="0 0 17 23" fill="none" xmlns="http://www.w3.org/2000/svg">
<path d="M3.7501 14.5219C3.71557 14.5219 3.68206 14.5262 3.6501 14.5345V13.3219H4.4501C4.67101 13.3219 4.8501 13.5009 4.8501 13.7219V14.1219C4.8501 14.3428 4.67101 14.5219 4.4501 14.5219H3.7501Z" fill="white"/>
<path d="M7.6501 16.5583V13.3219H8.0501C8.49193 13.3219 8.8501 13.68 8.8501 14.1219V15.7489C8.8501 16.1836 8.50296 16.5388 8.06836 16.5487L7.6501 16.5583Z" fill="white"/>
<path fill-rule="evenodd" clip-rule="evenodd" d="M0.25 2.92187C0.25 1.8173 1.14543 0.921875 2.25 0.921875H9.42157C9.95201 0.921875 10.4607 1.13259 10.8358 1.50766L15.6642 6.33609C16.0393 6.71116 16.25 7.21987 16.25 7.7503V20.9219C16.25 22.0264 15.3546 22.9219 14.25 22.9219H2.25C1.14543 22.9219 0.25 22.0264 0.25 20.9219V2.92187ZM2.25 18.9219V20.9219H14.25V18.9219H2.25ZM14.25 10.9219H2.25V2.92187L8.25 2.92188V7.92188C8.25 8.47416 8.69771 8.92188 9.25 8.92188H14.25V10.9219ZM10.25 6.92188H13.4216L10.25 3.7503V6.92188ZM3.2501 12.5219C3.02918 12.5219 2.8501 12.7009 2.8501 12.9219V16.9219C2.8501 17.1428 3.02918 17.3218 3.2501 17.3218C3.47101 17.3218 3.6501 17.1428 3.6501 16.9219V15.3092C3.68206 15.3175 3.71557 15.3219 3.7501 15.3219H4.4501C5.11284 15.3219 5.6501 14.7846 5.6501 14.1219V13.7219C5.6501 13.0591 5.11284 12.5219 4.4501 12.5219H3.2501ZM7.2501 12.5219C7.02918 12.5219 6.8501 12.7009 6.8501 12.9219V16.9675C6.8501 17.0752 6.8935 17.1783 6.9705 17.2536C7.0475 17.3288 7.15159 17.3699 7.25923 17.3674L8.08661 17.3485C8.95581 17.3287 9.6501 16.6184 9.6501 15.7489V14.1219C9.6501 13.2382 8.93375 12.5219 8.0501 12.5219H7.2501ZM11.2501 12.5219C11.0292 12.5219 10.8501 12.7009 10.8501 12.9219V16.9219C10.8501 17.1428 11.0292 17.3218 11.2501 17.3218C11.471 17.3218 11.6501 17.1428 11.6501 16.9219V15.3219H12.7501C12.971 15.3219 13.1501 15.1428 13.1501 14.9219C13.1501 14.7009 12.971 14.5219 12.7501 14.5219H11.6501V13.3219H13.2501C13.471 13.3219 13.6501 13.1428 13.6501 12.9219C13.6501 12.7009 13.471 12.5219 13.2501 12.5219H11.2501Z" fill="white"/>
</svg>
