<svg width="17" height="23" viewBox="0 0 17 23" fill="none" xmlns="http://www.w3.org/2000/svg">
<path d="M3.7501 14.0765C3.71557 14.0765 3.68206 14.0809 3.6501 14.0891V12.8765H4.4501C4.67101 12.8765 4.8501 13.0556 4.8501 13.2765V13.6765C4.8501 13.8975 4.67101 14.0765 4.4501 14.0765H3.7501Z" fill="#B3B3B3"/>
<path d="M7.6501 16.113V12.8765H8.0501C8.49193 12.8765 8.8501 13.2347 8.8501 13.6765V15.3036C8.8501 15.7383 8.50296 16.0935 8.06836 16.1034L7.6501 16.113Z" fill="#B3B3B3"/>
<path fill-rule="evenodd" clip-rule="evenodd" d="M0.25 2.47656C0.25 1.37199 1.14543 0.476562 2.25 0.476562H9.42157C9.95201 0.476562 10.4607 0.687276 10.8358 1.06235L15.6642 5.89078C16.0393 6.26585 16.25 6.77456 16.25 7.30499V20.4766C16.25 21.5811 15.3546 22.4766 14.25 22.4766H2.25C1.14543 22.4766 0.25 21.5811 0.25 20.4766V2.47656ZM2.25 18.4766V20.4766H14.25V18.4766H2.25ZM14.25 10.4766H2.25V2.47656L8.25 2.47656V7.47656C8.25 8.02885 8.69771 8.47656 9.25 8.47656H14.25V10.4766ZM10.25 6.47656H13.4216L10.25 3.30499V6.47656ZM3.2501 12.0765C3.02918 12.0765 2.8501 12.2556 2.8501 12.4765V16.4765C2.8501 16.6975 3.02918 16.8765 3.2501 16.8765C3.47101 16.8765 3.6501 16.6975 3.6501 16.4765V14.8639C3.68206 14.8722 3.71557 14.8765 3.7501 14.8765H4.4501C5.11284 14.8765 5.6501 14.3393 5.6501 13.6765V13.2765C5.6501 12.6138 5.11284 12.0765 4.4501 12.0765H3.2501ZM7.2501 12.0765C7.02918 12.0765 6.8501 12.2556 6.8501 12.4765V16.5222C6.8501 16.6299 6.8935 16.733 6.9705 16.8082C7.0475 16.8835 7.15159 16.9245 7.25923 16.9221L8.08661 16.9032C8.95581 16.8834 9.6501 16.173 9.6501 15.3036V13.6765C9.6501 12.7929 8.93375 12.0765 8.0501 12.0765H7.2501ZM11.2501 12.0765C11.0292 12.0765 10.8501 12.2556 10.8501 12.4765V16.4765C10.8501 16.6975 11.0292 16.8765 11.2501 16.8765C11.471 16.8765 11.6501 16.6975 11.6501 16.4765V14.8765H12.7501C12.971 14.8765 13.1501 14.6975 13.1501 14.4765C13.1501 14.2556 12.971 14.0765 12.7501 14.0765H11.6501V12.8765H13.2501C13.471 12.8765 13.6501 12.6975 13.6501 12.4765C13.6501 12.2556 13.471 12.0765 13.2501 12.0765H11.2501Z" fill="#B3B3B3"/>
</svg>
