<svg width="16" height="10" viewBox="0 0 16 10" fill="none" xmlns="http://www.w3.org/2000/svg">
<path d="M7.99996 6.9987C9.10453 6.9987 9.99996 6.10327 9.99996 4.9987C9.99996 3.89413 9.10453 2.9987 7.99996 2.9987C6.89539 2.9987 5.99996 3.89413 5.99996 4.9987C5.99996 6.10327 6.89539 6.9987 7.99996 6.9987Z" fill="#949494"/>
<path d="M1.27712 3.89217L0.786254 4.61095C0.62675 4.84451 0.62675 5.15288 0.786253 5.38644L1.27712 6.10522C4.51884 10.8521 11.4811 10.8521 14.7228 6.10522L15.2137 5.38644C15.3732 5.15288 15.3732 4.84451 15.2137 4.61095L14.7228 3.89218C11.4811 -0.854683 4.51884 -0.854684 1.27712 3.89217ZM13.6217 4.64412L13.8639 4.9987L13.6217 5.35328C10.9094 9.32495 5.09052 9.32495 2.37819 5.35328L2.13604 4.9987L2.37819 4.64412C5.09052 0.672447 10.9094 0.672448 13.6217 4.64412Z" fill="#949494"/>
</svg>
