<svg width="25" height="25" viewBox="0 0 25 25" fill="none" xmlns="http://www.w3.org/2000/svg">
<path d="M12.4492 15.5415C14.1061 15.5415 15.4492 14.1984 15.4492 12.5415C15.4492 10.8846 14.1061 9.5415 12.4492 9.5415C10.7924 9.5415 9.44922 10.8846 9.44922 12.5415C9.44922 14.1984 10.7924 15.5415 12.4492 15.5415Z" fill="#2E7FA1"/>
<path d="M2.36496 10.8817L1.62866 11.9599C1.38941 12.3102 1.3894 12.7728 1.62866 13.1231L2.36496 14.2013C7.22753 21.3216 17.6709 21.3216 22.5335 14.2013L23.2698 13.1231C23.509 12.7728 23.509 12.3102 23.2698 11.9599L22.5335 10.8817C17.6709 3.76143 7.22753 3.76143 2.36496 10.8817ZM20.8819 12.0096L21.2451 12.5415L20.8819 13.0734C16.8134 19.0309 8.08506 19.0309 4.01657 13.0734L3.65334 12.5415L4.01657 12.0096C8.08506 6.05213 16.8134 6.05213 20.8819 12.0096Z" fill="#2E7FA1"/>
</svg>
