<svg width="49" height="49" viewBox="0 0 49 49" fill="none" xmlns="http://www.w3.org/2000/svg">
<rect x="6.66797" y="6.88623" width="36" height="36" rx="18" fill="#D4E9F2"/>
<path d="M18.668 14.8862C16.4588 14.8862 14.668 16.6771 14.668 18.8862V21.8862C14.668 22.4385 15.1157 22.8862 15.668 22.8862C16.2203 22.8862 16.668 22.4385 16.668 21.8862V18.8862C16.668 17.7817 17.5634 16.8862 18.668 16.8862H21.668C22.2203 16.8862 22.668 16.4385 22.668 15.8862C22.668 15.3339 22.2203 14.8862 21.668 14.8862H18.668Z" fill="#163746"/>
<path d="M14.668 30.8862C14.668 33.0954 16.4588 34.8862 18.668 34.8862H21.668C22.2203 34.8862 22.668 34.4385 22.668 33.8862C22.668 33.3339 22.2203 32.8862 21.668 32.8862H18.668C17.5634 32.8862 16.668 31.9908 16.668 30.8862L16.668 27.8862C16.668 27.3339 16.2203 26.8862 15.668 26.8862C15.1157 26.8862 14.668 27.3339 14.668 27.8862V30.8862Z" fill="#163746"/>
<path d="M34.668 30.8862C34.668 33.0954 32.8771 34.8862 30.668 34.8862H27.668C27.1157 34.8862 26.668 34.4385 26.668 33.8862C26.668 33.3339 27.1157 32.8862 27.668 32.8862H30.668C31.7725 32.8862 32.668 31.9908 32.668 30.8862V27.8862C32.668 27.3339 33.1157 26.8862 33.668 26.8862C34.2203 26.8862 34.668 27.3339 34.668 27.8862V30.8862Z" fill="#163746"/>
<path d="M34.668 18.8862C34.668 16.6771 32.8771 14.8862 30.668 14.8862H27.668C27.1157 14.8862 26.668 15.3339 26.668 15.8862C26.668 16.4385 27.1157 16.8862 27.668 16.8862L30.668 16.8862C31.7725 16.8862 32.668 17.7817 32.668 18.8862V21.8862C32.668 22.4385 33.1157 22.8862 33.668 22.8862C34.2203 22.8862 34.668 22.4385 34.668 21.8862V18.8862Z" fill="#163746"/>
</svg>
