<svg width="48" height="49" viewBox="0 0 48 49" fill="none" xmlns="http://www.w3.org/2000/svg">
<path d="M18 22.4214C20.2091 22.4214 22 20.6305 22 18.4214L22 15.4214C22 14.8691 21.5523 14.4214 21 14.4214C20.4477 14.4214 20 14.8691 20 15.4214V18.4214C20 19.526 19.1046 20.4214 18 20.4214H15C14.4477 20.4214 14 20.8691 14 21.4214C14 21.9737 14.4477 22.4214 15 22.4214H18Z" fill="#666666"/>
<path d="M22 30.4214C22 28.2122 20.2091 26.4214 18 26.4214H15C14.4477 26.4214 14 26.8691 14 27.4214C14 27.9737 14.4477 28.4214 15 28.4214H18C19.1046 28.4214 20 29.3168 20 30.4214L20 33.4214C20 33.9737 20.4477 34.4214 21 34.4214C21.5523 34.4214 22 33.9737 22 33.4214L22 30.4214Z" fill="#666666"/>
<path d="M26 30.4214C26 28.2122 27.7909 26.4214 30 26.4214H33C33.5523 26.4214 34 26.8691 34 27.4214C34 27.9737 33.5523 28.4214 33 28.4214H30C28.8954 28.4214 28 29.3168 28 30.4214V33.4214C28 33.9737 27.5523 34.4214 27 34.4214C26.4477 34.4214 26 33.9737 26 33.4214V30.4214Z" fill="#666666"/>
<path d="M26 18.4214C26 20.6305 27.7909 22.4214 30 22.4214H33C33.5523 22.4214 34 21.9737 34 21.4214C34 20.8691 33.5523 20.4214 33 20.4214H30C28.8954 20.4214 28 19.526 28 18.4214V15.4214C28 14.8691 27.5523 14.4214 27 14.4214C26.4477 14.4214 26 14.8691 26 15.4214V18.4214Z" fill="#666666"/>
</svg>
