<svg width="49" height="49" viewBox="0 0 49 49" fill="none" xmlns="http://www.w3.org/2000/svg">
<rect x="6.83398" y="6.42139" width="36" height="36" rx="18" fill="#F1FBFE"/>
<path d="M18.834 14.4214C16.6248 14.4214 14.834 16.2122 14.834 18.4214V21.4214C14.834 21.9737 15.2817 22.4214 15.834 22.4214C16.3863 22.4214 16.834 21.9737 16.834 21.4214V18.4214C16.834 17.3168 17.7294 16.4214 18.834 16.4214H21.834C22.3863 16.4214 22.834 15.9737 22.834 15.4214C22.834 14.8691 22.3863 14.4214 21.834 14.4214H18.834Z" fill="#215369"/>
<path d="M14.834 30.4214C14.834 32.6305 16.6248 34.4214 18.834 34.4214H21.834C22.3863 34.4214 22.834 33.9737 22.834 33.4214C22.834 32.8691 22.3863 32.4214 21.834 32.4214H18.834C17.7294 32.4214 16.834 31.526 16.834 30.4214L16.834 27.4214C16.834 26.8691 16.3863 26.4214 15.834 26.4214C15.2817 26.4214 14.834 26.8691 14.834 27.4214V30.4214Z" fill="#215369"/>
<path d="M34.834 30.4214C34.834 32.6305 33.0431 34.4214 30.834 34.4214H27.834C27.2817 34.4214 26.834 33.9737 26.834 33.4214C26.834 32.8691 27.2817 32.4214 27.834 32.4214H30.834C31.9386 32.4214 32.834 31.526 32.834 30.4214V27.4214C32.834 26.8691 33.2817 26.4214 33.834 26.4214C34.3863 26.4214 34.834 26.8691 34.834 27.4214V30.4214Z" fill="#215369"/>
<path d="M34.834 18.4214C34.834 16.2122 33.0431 14.4214 30.834 14.4214H27.834C27.2817 14.4214 26.834 14.8691 26.834 15.4214C26.834 15.9737 27.2817 16.4214 27.834 16.4214L30.834 16.4214C31.9386 16.4214 32.834 17.3168 32.834 18.4214V21.4214C32.834 21.9737 33.2817 22.4214 33.834 22.4214C34.3863 22.4214 34.834 21.9737 34.834 21.4214V18.4214Z" fill="#215369"/>
</svg>
