<svg width="48" height="49" viewBox="0 0 48 49" fill="none" xmlns="http://www.w3.org/2000/svg">
<path d="M18 14.4214C15.7909 14.4214 14 16.2122 14 18.4214V21.4214C14 21.9737 14.4477 22.4214 15 22.4214C15.5523 22.4214 16 21.9737 16 21.4214V18.4214C16 17.3168 16.8954 16.4214 18 16.4214H21C21.5523 16.4214 22 15.9737 22 15.4214C22 14.8691 21.5523 14.4214 21 14.4214H18Z" fill="#666666"/>
<path d="M14 30.4214C14 32.6305 15.7909 34.4214 18 34.4214H21C21.5523 34.4214 22 33.9737 22 33.4214C22 32.8691 21.5523 32.4214 21 32.4214H18C16.8954 32.4214 16 31.526 16 30.4214L16 27.4214C16 26.8691 15.5523 26.4214 15 26.4214C14.4477 26.4214 14 26.8691 14 27.4214V30.4214Z" fill="#666666"/>
<path d="M34 30.4214C34 32.6305 32.2091 34.4214 30 34.4214H27C26.4477 34.4214 26 33.9737 26 33.4214C26 32.8691 26.4477 32.4214 27 32.4214H30C31.1046 32.4214 32 31.526 32 30.4214V27.4214C32 26.8691 32.4477 26.4214 33 26.4214C33.5523 26.4214 34 26.8691 34 27.4214V30.4214Z" fill="#666666"/>
<path d="M34 18.4214C34 16.2122 32.2091 14.4214 30 14.4214H27C26.4477 14.4214 26 14.8691 26 15.4214C26 15.9737 26.4477 16.4214 27 16.4214L30 16.4214C31.1046 16.4214 32 17.3168 32 18.4214V21.4214C32 21.9737 32.4477 22.4214 33 22.4214C33.5523 22.4214 34 21.9737 34 21.4214V18.4214Z" fill="#666666"/>
</svg>
