<svg width="20" height="20" viewBox="0 0 20 20" fill="none" xmlns="http://www.w3.org/2000/svg">
<path d="M4 8C6.20914 8 8 6.20914 8 4L8 1C8 0.447715 7.55229 0 7 0C6.44772 0 6 0.447715 6 1V4C6 5.10457 5.10457 6 4 6H1C0.447715 6 0 6.44771 0 7C0 7.55228 0.447715 8 1 8H4Z" fill="#666666"/>
<path d="M8 16C8 13.7909 6.20914 12 4 12H1C0.447715 12 0 12.4477 0 13C0 13.5523 0.447715 14 1 14H4C5.10457 14 6 14.8954 6 16L6 19C6 19.5523 6.44771 20 7 20C7.55228 20 8 19.5523 8 19L8 16Z" fill="#666666"/>
<path d="M12 16C12 13.7909 13.7909 12 16 12H19C19.5523 12 20 12.4477 20 13C20 13.5523 19.5523 14 19 14H16C14.8954 14 14 14.8954 14 16V19C14 19.5523 13.5523 20 13 20C12.4477 20 12 19.5523 12 19V16Z" fill="#666666"/>
<path d="M12 4C12 6.20914 13.7909 8 16 8H19C19.5523 8 20 7.55228 20 7C20 6.44772 19.5523 6 19 6H16C14.8954 6 14 5.10457 14 4V1C14 0.447715 13.5523 0 13 0C12.4477 0 12 0.447715 12 1V4Z" fill="#666666"/>
</svg>
