<svg width="49" height="49" viewBox="0 0 49 49" fill="none" xmlns="http://www.w3.org/2000/svg">
<rect x="6.66797" y="6.42139" width="36" height="36" rx="18" fill="#D4E9F2"/>
<path d="M18.668 22.4214C20.8771 22.4214 22.668 20.6305 22.668 18.4214L22.668 15.4214C22.668 14.8691 22.2203 14.4214 21.668 14.4214C21.1157 14.4214 20.668 14.8691 20.668 15.4214V18.4214C20.668 19.526 19.7725 20.4214 18.668 20.4214H15.668C15.1157 20.4214 14.668 20.8691 14.668 21.4214C14.668 21.9737 15.1157 22.4214 15.668 22.4214H18.668Z" fill="#163746"/>
<path d="M22.668 30.4214C22.668 28.2122 20.8771 26.4214 18.668 26.4214H15.668C15.1157 26.4214 14.668 26.8691 14.668 27.4214C14.668 27.9737 15.1157 28.4214 15.668 28.4214H18.668C19.7725 28.4214 20.668 29.3168 20.668 30.4214L20.668 33.4214C20.668 33.9737 21.1157 34.4214 21.668 34.4214C22.2203 34.4214 22.668 33.9737 22.668 33.4214L22.668 30.4214Z" fill="#163746"/>
<path d="M26.668 30.4214C26.668 28.2122 28.4588 26.4214 30.668 26.4214H33.668C34.2203 26.4214 34.668 26.8691 34.668 27.4214C34.668 27.9737 34.2203 28.4214 33.668 28.4214H30.668C29.5634 28.4214 28.668 29.3168 28.668 30.4214V33.4214C28.668 33.9737 28.2203 34.4214 27.668 34.4214C27.1157 34.4214 26.668 33.9737 26.668 33.4214V30.4214Z" fill="#163746"/>
<path d="M26.668 18.4214C26.668 20.6305 28.4588 22.4214 30.668 22.4214H33.668C34.2203 22.4214 34.668 21.9737 34.668 21.4214C34.668 20.8691 34.2203 20.4214 33.668 20.4214H30.668C29.5634 20.4214 28.668 19.526 28.668 18.4214V15.4214C28.668 14.8691 28.2203 14.4214 27.668 14.4214C27.1157 14.4214 26.668 14.8691 26.668 15.4214V18.4214Z" fill="#163746"/>
</svg>
