<svg width="49" height="49" viewBox="0 0 49 49" fill="none" xmlns="http://www.w3.org/2000/svg">
<rect x="6.66797" y="6.42139" width="36" height="36" rx="18" fill="#D4E9F2"/>
<path d="M18.668 14.4214C16.4588 14.4214 14.668 16.2122 14.668 18.4214V21.4214C14.668 21.9737 15.1157 22.4214 15.668 22.4214C16.2203 22.4214 16.668 21.9737 16.668 21.4214V18.4214C16.668 17.3168 17.5634 16.4214 18.668 16.4214H21.668C22.2203 16.4214 22.668 15.9737 22.668 15.4214C22.668 14.8691 22.2203 14.4214 21.668 14.4214H18.668Z" fill="#163746"/>
<path d="M14.668 30.4214C14.668 32.6305 16.4588 34.4214 18.668 34.4214H21.668C22.2203 34.4214 22.668 33.9737 22.668 33.4214C22.668 32.8691 22.2203 32.4214 21.668 32.4214H18.668C17.5634 32.4214 16.668 31.526 16.668 30.4214L16.668 27.4214C16.668 26.8691 16.2203 26.4214 15.668 26.4214C15.1157 26.4214 14.668 26.8691 14.668 27.4214V30.4214Z" fill="#163746"/>
<path d="M34.668 30.4214C34.668 32.6305 32.8771 34.4214 30.668 34.4214H27.668C27.1157 34.4214 26.668 33.9737 26.668 33.4214C26.668 32.8691 27.1157 32.4214 27.668 32.4214H30.668C31.7725 32.4214 32.668 31.526 32.668 30.4214V27.4214C32.668 26.8691 33.1157 26.4214 33.668 26.4214C34.2203 26.4214 34.668 26.8691 34.668 27.4214V30.4214Z" fill="#163746"/>
<path d="M34.668 18.4214C34.668 16.2122 32.8771 14.4214 30.668 14.4214H27.668C27.1157 14.4214 26.668 14.8691 26.668 15.4214C26.668 15.9737 27.1157 16.4214 27.668 16.4214L30.668 16.4214C31.7725 16.4214 32.668 17.3168 32.668 18.4214V21.4214C32.668 21.9737 33.1157 22.4214 33.668 22.4214C34.2203 22.4214 34.668 21.9737 34.668 21.4214V18.4214Z" fill="#163746"/>
</svg>
