<svg width="49" height="49" viewBox="0 0 49 49" fill="none" xmlns="http://www.w3.org/2000/svg">
<rect x="6.83398" y="6.42139" width="36" height="36" rx="18" fill="#F1FBFE"/>
<path d="M18.834 22.4214C21.0431 22.4214 22.834 20.6305 22.834 18.4214L22.834 15.4214C22.834 14.8691 22.3863 14.4214 21.834 14.4214C21.2817 14.4214 20.834 14.8691 20.834 15.4214V18.4214C20.834 19.526 19.9386 20.4214 18.834 20.4214H15.834C15.2817 20.4214 14.834 20.8691 14.834 21.4214C14.834 21.9737 15.2817 22.4214 15.834 22.4214H18.834Z" fill="#215369"/>
<path d="M22.834 30.4214C22.834 28.2122 21.0431 26.4214 18.834 26.4214H15.834C15.2817 26.4214 14.834 26.8691 14.834 27.4214C14.834 27.9737 15.2817 28.4214 15.834 28.4214H18.834C19.9386 28.4214 20.834 29.3168 20.834 30.4214L20.834 33.4214C20.834 33.9737 21.2817 34.4214 21.834 34.4214C22.3863 34.4214 22.834 33.9737 22.834 33.4214L22.834 30.4214Z" fill="#215369"/>
<path d="M26.834 30.4214C26.834 28.2122 28.6248 26.4214 30.834 26.4214H33.834C34.3863 26.4214 34.834 26.8691 34.834 27.4214C34.834 27.9737 34.3863 28.4214 33.834 28.4214H30.834C29.7294 28.4214 28.834 29.3168 28.834 30.4214V33.4214C28.834 33.9737 28.3863 34.4214 27.834 34.4214C27.2817 34.4214 26.834 33.9737 26.834 33.4214V30.4214Z" fill="#215369"/>
<path d="M26.834 18.4214C26.834 20.6305 28.6248 22.4214 30.834 22.4214H33.834C34.3863 22.4214 34.834 21.9737 34.834 21.4214C34.834 20.8691 34.3863 20.4214 33.834 20.4214H30.834C29.7294 20.4214 28.834 19.526 28.834 18.4214V15.4214C28.834 14.8691 28.3863 14.4214 27.834 14.4214C27.2817 14.4214 26.834 14.8691 26.834 15.4214V18.4214Z" fill="#215369"/>
</svg>
