<svg width="25" height="25" viewBox="0 0 25 25" fill="none" xmlns="http://www.w3.org/2000/svg">
<path d="M6.00586 2.90967C3.79672 2.90967 2.00586 4.70053 2.00586 6.90967V9.90967C2.00586 10.462 2.45357 10.9097 3.00586 10.9097C3.55814 10.9097 4.00586 10.462 4.00586 9.90967V6.90967C4.00586 5.8051 4.90129 4.90967 6.00586 4.90967H9.00586C9.55814 4.90967 10.0059 4.46195 10.0059 3.90967C10.0059 3.35738 9.55814 2.90967 9.00586 2.90967H6.00586Z" fill="#666666"/>
<path d="M2.00586 18.9097C2.00586 21.1188 3.79672 22.9097 6.00586 22.9097H9.00586C9.55814 22.9097 10.0059 22.462 10.0059 21.9097C10.0059 21.3574 9.55814 20.9097 9.00586 20.9097H6.00586C4.90129 20.9097 4.00586 20.0142 4.00586 18.9097L4.00586 15.9097C4.00586 15.3574 3.55814 14.9097 3.00586 14.9097C2.45357 14.9097 2.00586 15.3574 2.00586 15.9097V18.9097Z" fill="#666666"/>
<path d="M22.0059 18.9097C22.0059 21.1188 20.215 22.9097 18.0059 22.9097H15.0059C14.4536 22.9097 14.0059 22.462 14.0059 21.9097C14.0059 21.3574 14.4536 20.9097 15.0059 20.9097H18.0059C19.1104 20.9097 20.0059 20.0142 20.0059 18.9097V15.9097C20.0059 15.3574 20.4536 14.9097 21.0059 14.9097C21.5581 14.9097 22.0059 15.3574 22.0059 15.9097V18.9097Z" fill="#666666"/>
<path d="M22.0059 6.90967C22.0059 4.70053 20.215 2.90967 18.0059 2.90967H15.0059C14.4536 2.90967 14.0059 3.35738 14.0059 3.90967C14.0059 4.46195 14.4536 4.90967 15.0059 4.90967L18.0059 4.90967C19.1104 4.90967 20.0059 5.8051 20.0059 6.90967V9.90967C20.0059 10.462 20.4536 10.9097 21.0059 10.9097C21.5581 10.9097 22.0059 10.462 22.0059 9.90967V6.90967Z" fill="#666666"/>
</svg>
