<svg width="48" height="49" viewBox="0 0 48 49" fill="none" xmlns="http://www.w3.org/2000/svg">
<rect x="6" y="6.87354" width="36" height="36" rx="18" fill="#F1FBFE"/>
<path d="M17 23.8735C17 22.2167 18.3431 20.8735 20 20.8735C20.8289 20.8735 21.5792 21.2097 22.1222 21.7531L22.123 21.7522C22.5136 22.1427 22.5136 22.7759 22.123 23.1664C21.734 23.5554 21.1042 23.5569 20.7134 23.1709L20.7125 23.1718C20.5311 22.9877 20.2789 22.8735 20 22.8735C19.4477 22.8735 19 23.3213 19 23.8735V25.8735C19 26.4258 19.4477 26.8735 20 26.8735C20.2789 26.8735 20.5311 26.7594 20.7125 26.5752L20.7133 26.5761C21.1041 26.19 21.7339 26.1916 22.123 26.5806C22.5135 26.9711 22.5135 27.6043 22.123 27.9948L22.1222 27.994C21.5792 28.5374 20.8289 28.8735 20 28.8735C18.3431 28.8735 17 27.5304 17 25.8735V23.8735Z" fill="#215369"/>
<path d="M28 20.8735C26.3431 20.8735 25 22.2167 25 23.8735V25.8735C25 27.5304 26.3431 28.8735 28 28.8735C28.8289 28.8735 29.5792 28.5374 30.1222 27.994L30.123 27.9948C30.5135 27.6043 30.5135 26.9711 30.123 26.5806C29.7339 26.1916 29.1041 26.19 28.7133 26.5761L28.7125 26.5752C28.5311 26.7594 28.2789 26.8735 28 26.8735C27.4477 26.8735 27 26.4258 27 25.8735V23.8735C27 23.3213 27.4477 22.8735 28 22.8735C28.2789 22.8735 28.5311 22.9877 28.7125 23.1718L28.7134 23.1709C29.1042 23.5569 29.734 23.5554 30.123 23.1664C30.5136 22.7759 30.5136 22.1427 30.123 21.7522L30.1222 21.7531C29.5792 21.2097 28.8289 20.8735 28 20.8735Z" fill="#215369"/>
<path d="M16 16.8735C14.3431 16.8735 13 18.2167 13 19.8735V29.8735C13 31.5304 14.3431 32.8735 16 32.8735H32C33.6569 32.8735 35 31.5304 35 29.8735V19.8735C35 18.2167 33.6569 16.8735 32 16.8735H16ZM32 18.8735C32.5523 18.8735 33 19.3212 33 19.8735V29.8735C33 30.4258 32.5523 30.8735 32 30.8735H16C15.4477 30.8735 15 30.4258 15 29.8735V19.8735C15 19.3213 15.4477 18.8735 16 18.8735H32Z" fill="#215369"/>
</svg>
