<svg width="25" height="25" viewBox="0 0 25 25" fill="none" xmlns="http://www.w3.org/2000/svg">
<path d="M12.1445 15.0815C13.8014 15.0815 15.1445 13.7384 15.1445 12.0815C15.1445 10.4247 13.8014 9.08154 12.1445 9.08154C10.4877 9.08154 9.14453 10.4247 9.14453 12.0815C9.14453 13.7384 10.4877 15.0815 12.1445 15.0815Z" fill="#666666"/>
<path d="M2.06027 10.4218L1.32397 11.4999C1.08472 11.8503 1.08472 12.3128 1.32397 12.6632L2.06027 13.7413C6.92285 20.8616 17.3662 20.8616 22.2288 13.7413L22.9651 12.6632C23.2043 12.3128 23.2043 11.8503 22.9651 11.4999L22.2288 10.4218C17.3662 3.30147 6.92285 3.30147 2.06027 10.4218ZM20.5772 11.5497L20.9404 12.0815L20.5772 12.6134C16.5087 18.5709 7.78037 18.5709 3.71188 12.6134L3.34866 12.0815L3.71188 11.5497C7.78037 5.59217 16.5087 5.59217 20.5772 11.5497Z" fill="#666666"/>
</svg>
