<svg width="25" height="25" viewBox="0 0 25 25" fill="none" xmlns="http://www.w3.org/2000/svg">
<path d="M14.0391 8C14.0391 8.82843 13.3675 9.5 12.5391 9.5C11.7106 9.5 11.0391 8.82843 11.0391 8C11.0391 7.17157 11.7106 6.5 12.5391 6.5C13.3675 6.5 14.0391 7.17157 14.0391 8Z" fill="#604920"/>
<path d="M13.5391 11.5C13.5391 10.9477 13.0913 10.5 12.5391 10.5C11.9868 10.5 11.5391 10.9477 11.5391 11.5V17.5C11.5391 18.0523 11.9868 18.5 12.5391 18.5C13.0913 18.5 13.5391 18.0523 13.5391 17.5V11.5Z" fill="#604920"/>
<path d="M12.5391 23.5C18.6142 23.5 23.5391 18.5751 23.5391 12.5C23.5391 6.42487 18.6142 1.5 12.5391 1.5C6.46393 1.5 1.53906 6.42487 1.53906 12.5C1.53906 18.5751 6.46393 23.5 12.5391 23.5ZM12.5391 21.5C7.5685 21.5 3.53906 17.4706 3.53906 12.5C3.53906 7.52944 7.5685 3.5 12.5391 3.5C17.5096 3.5 21.5391 7.52944 21.5391 12.5C21.5391 17.4706 17.5096 21.5 12.5391 21.5Z" fill="#604920"/>
</svg>
