<svg width="23" height="15" viewBox="0 0 23 15" fill="none" xmlns="http://www.w3.org/2000/svg">
<path d="M11.9082 10.6682C13.5651 10.6682 14.9082 9.32507 14.9082 7.66821C14.9082 6.01136 13.5651 4.66821 11.9082 4.66821C10.2513 4.66821 8.9082 6.01136 8.9082 7.66821C8.9082 9.32507 10.2513 10.6682 11.9082 10.6682Z" fill="white"/>
<path d="M1.82394 6.00843L1.08764 7.08659C0.84839 7.43694 0.848389 7.89949 1.08764 8.24983L1.82394 9.328C6.68652 16.4483 17.1299 16.4483 21.9925 9.328L22.7288 8.24983C22.968 7.89949 22.968 7.43694 22.7288 7.08659L21.9925 6.00843C17.1299 -1.11186 6.68652 -1.11186 1.82394 6.00843ZM20.3409 7.13634L20.7041 7.66821L20.3409 8.20008C16.2724 14.1576 7.54404 14.1576 3.47555 8.20008L3.11233 7.66821L3.47555 7.13634C7.54404 1.17884 16.2724 1.17884 20.3409 7.13634Z" fill="white"/>
</svg>
