<svg width="24" height="24" viewBox="0 0 24 24" fill="none" xmlns="http://www.w3.org/2000/svg">
<path d="M22 5C22 5.55228 21.5523 6 21 6L3.00049 6C2.4482 6 2.00049 5.55229 2.00049 5C2.00049 4.44772 2.4482 4 3.00049 4H21C21.5523 4 22 4.44772 22 5Z" fill="#212121"/>
<path d="M22 11.943C22 12.4953 21.5523 12.943 21 12.943L3.00049 12.943C2.4482 12.943 2.00049 12.4953 2.00049 11.943C2.00049 11.3907 2.4482 10.943 3.00049 10.943L21 10.943C21.5523 10.943 22 11.3907 22 11.943Z" fill="#212121"/>
<path d="M3 18C2.44772 18 2 18.4477 2 19C2 19.5523 2.44772 20 3 20H20.9995C21.5518 20 21.9995 19.5523 21.9995 19C21.9995 18.4477 21.5518 18 20.9995 18H3Z" fill="#212121"/>
</svg>
