<svg width="49" height="49" viewBox="0 0 49 49" fill="none" xmlns="http://www.w3.org/2000/svg">
<rect x="6.83398" y="6.16553" width="36" height="36" rx="18" fill="#F1FBFE"/>
<path d="M31.3893 15.334C30.9301 15.0273 30.3091 15.151 30.0024 15.6103C29.6957 16.0696 29.8193 16.6905 30.2786 16.9972C32.3687 18.393 33.834 21.0522 33.834 24.1656C33.834 27.2791 32.3687 29.9383 30.2786 31.334C29.8193 31.6407 29.6957 32.2617 30.0024 32.721C30.3091 33.1803 30.9301 33.304 31.3893 32.9972C34.0817 31.1992 35.834 27.8891 35.834 24.1656C35.834 20.4422 34.0817 17.132 31.3893 15.334Z" fill="#215369"/>
<path d="M18.0007 28.3323L20.4198 30.7514C21.6797 32.0113 23.834 31.119 23.834 29.3372V18.9941C23.834 17.2123 21.6797 16.3199 20.4198 17.5798L18.0007 19.999H15.834C14.7294 19.999 13.834 20.8944 13.834 21.999V26.3323C13.834 27.4369 14.7294 28.3323 15.834 28.3323H18.0007ZM18.8291 21.999L21.834 18.9941V29.3372L18.8291 26.3323H15.834V21.999H18.8291Z" fill="#215369"/>
<path d="M27.0024 19.6103C27.3091 19.151 27.9301 19.0273 28.3893 19.334C29.8861 20.3336 30.834 22.1514 30.834 24.1656C30.834 26.1798 29.8861 27.9977 28.3893 28.9972C27.9301 29.304 27.3091 29.1803 27.0024 28.721C26.6957 28.2617 26.8193 27.6407 27.2786 27.334C28.1731 26.7367 28.834 25.5699 28.834 24.1656C28.834 22.7614 28.1731 21.5946 27.2786 20.9972C26.8193 20.6905 26.6957 20.0696 27.0024 19.6103Z" fill="#215369"/>
</svg>
