<svg width="49" height="49" viewBox="0 0 49 49" fill="none" xmlns="http://www.w3.org/2000/svg">
<rect x="6.83398" y="6.16553" width="36" height="36" rx="18" fill="#F1FBFE"/>
<path d="M20.4198 30.7511L18.0007 28.332H15.834C14.7294 28.332 13.834 27.4366 13.834 26.332V21.9987C13.834 20.8941 14.7294 19.9987 15.834 19.9987H18.0007L20.4198 17.5795C21.6797 16.3196 23.834 17.2119 23.834 18.9938V29.3369C23.834 31.1187 21.6797 32.011 20.4198 30.7511ZM18.8291 21.9987H15.834V26.332H18.8291L21.834 29.3369V18.9938L18.8291 21.9987Z" fill="#215369"/>
<path d="M29.5502 20.9598C29.1576 20.5672 28.521 20.5672 28.1284 20.9598C27.7358 21.3524 27.7358 21.9889 28.1284 22.3815L29.9122 24.1653L28.1284 25.9491C27.7358 26.3417 27.7358 26.9782 28.1284 27.3708C28.521 27.7634 29.1576 27.7634 29.5502 27.3708L31.334 25.587L33.1176 27.3707C33.5102 27.7633 34.1468 27.7633 34.5394 27.3707C34.932 26.9781 34.932 26.3416 34.5394 25.949L32.7557 24.1653L34.5394 22.3816C34.932 21.989 34.932 21.3525 34.5394 20.9599C34.1468 20.5673 33.5102 20.5673 33.1176 20.9599L31.334 22.7435L29.5502 20.9598Z" fill="#215369"/>
</svg>
