<svg width="48" height="49" viewBox="0 0 48 49" fill="none" xmlns="http://www.w3.org/2000/svg">
<path d="M19.5858 30.7511L17.1667 28.332H15C13.8954 28.332 13 27.4366 13 26.332V21.9987C13 20.8941 13.8954 19.9987 15 19.9987H17.1667L19.5858 17.5795C20.8457 16.3196 23 17.2119 23 18.9938V29.3369C23 31.1187 20.8457 32.011 19.5858 30.7511ZM17.9951 21.9987H15V26.332H17.9951L21 29.3369V18.9938L17.9951 21.9987Z" fill="#666666"/>
<path d="M28.7162 20.9598C28.3236 20.5672 27.6871 20.5672 27.2945 20.9598C26.9018 21.3524 26.9018 21.9889 27.2945 22.3815L29.0782 24.1653L27.2945 25.9491C26.9019 26.3417 26.9019 26.9782 27.2945 27.3708C27.6871 27.7634 28.3236 27.7634 28.7162 27.3708L30.5 25.587L32.2836 27.3707C32.6762 27.7633 33.3128 27.7633 33.7054 27.3707C34.098 26.9781 34.098 26.3416 33.7054 25.949L31.9217 24.1653L33.7054 22.3816C34.098 21.989 34.098 21.3525 33.7054 20.9599C33.3128 20.5673 32.6763 20.5673 32.2836 20.9599L30.5 22.7435L28.7162 20.9598Z" fill="#666666"/>
</svg>
