<svg width="48" height="49" viewBox="0 0 48 49" fill="none" xmlns="http://www.w3.org/2000/svg">
<path d="M30.5554 15.334C30.0961 15.0273 29.4751 15.151 29.1684 15.6103C28.8617 16.0696 28.9854 16.6905 29.4446 16.9972C31.5347 18.393 33 21.0522 33 24.1656C33 27.2791 31.5347 29.9383 29.4446 31.334C28.9854 31.6407 28.8617 32.2617 29.1684 32.721C29.4751 33.1803 30.0961 33.304 30.5554 32.9972C33.2477 31.1992 35 27.8891 35 24.1656C35 20.4422 33.2477 17.132 30.5554 15.334Z" fill="#666666"/>
<path d="M17.1667 28.3323L19.5858 30.7514C20.8457 32.0113 23 31.119 23 29.3372V18.9941C23 17.2123 20.8457 16.3199 19.5858 17.5798L17.1667 19.999H15C13.8954 19.999 13 20.8944 13 21.999V26.3323C13 27.4369 13.8954 28.3323 15 28.3323H17.1667ZM17.9951 21.999L21 18.9941V29.3372L17.9951 26.3323H15V21.999H17.9951Z" fill="#666666"/>
<path d="M26.1684 19.6103C26.4751 19.151 27.0961 19.0273 27.5554 19.334C29.0521 20.3336 30 22.1514 30 24.1656C30 26.1798 29.0521 27.9977 27.5554 28.9972C27.0961 29.304 26.4751 29.1803 26.1684 28.721C25.8617 28.2617 25.9854 27.6407 26.4446 27.334C27.3391 26.7367 28 25.5699 28 24.1656C28 22.7614 27.3391 21.5946 26.4446 20.9972C25.9854 20.6905 25.8617 20.0696 26.1684 19.6103Z" fill="#666666"/>
</svg>
