<svg width="49" height="49" viewBox="0 0 49 49" fill="none" xmlns="http://www.w3.org/2000/svg">
<rect x="6.66797" y="6.16553" width="36" height="36" rx="18" fill="#D4E9F2"/>
<path d="M31.2233 15.334C30.764 15.0273 30.1431 15.151 29.8364 15.6103C29.5296 16.0696 29.6533 16.6905 30.1126 16.9972C32.2026 18.393 33.668 21.0522 33.668 24.1656C33.668 27.2791 32.2026 29.9383 30.1126 31.334C29.6533 31.6407 29.5296 32.2617 29.8364 32.721C30.1431 33.1803 30.764 33.304 31.2233 32.9972C33.9157 31.1992 35.668 27.8891 35.668 24.1656C35.668 20.4422 33.9157 17.132 31.2233 15.334Z" fill="#163746"/>
<path d="M17.8346 28.3323L20.2538 30.7514C21.5137 32.0113 23.668 31.119 23.668 29.3372V18.9941C23.668 17.2123 21.5137 16.3199 20.2538 17.5798L17.8346 19.999H15.668C14.5634 19.999 13.668 20.8944 13.668 21.999V26.3323C13.668 27.4369 14.5634 28.3323 15.668 28.3323H17.8346ZM18.6631 21.999L21.668 18.9941V29.3372L18.6631 26.3323H15.668V21.999H18.6631Z" fill="#163746"/>
<path d="M26.8364 19.6103C27.1431 19.151 27.764 19.0273 28.2233 19.334C29.7201 20.3336 30.668 22.1514 30.668 24.1656C30.668 26.1798 29.7201 27.9977 28.2233 28.9972C27.764 29.304 27.1431 29.1803 26.8364 28.721C26.5296 28.2617 26.6533 27.6407 27.1126 27.334C28.007 26.7367 28.668 25.5699 28.668 24.1656C28.668 22.7614 28.007 21.5946 27.1126 20.9972C26.6533 20.6905 26.5296 20.0696 26.8364 19.6103Z" fill="#163746"/>
</svg>
