<svg width="49" height="49" viewBox="0 0 49 49" fill="none" xmlns="http://www.w3.org/2000/svg">
<rect x="6.66797" y="6.63037" width="36" height="36" rx="18" fill="#D4E9F2"/>
<path d="M20.2538 31.216L17.8346 28.7968H15.668C14.5634 28.7968 13.668 27.9014 13.668 26.7968V22.4635C13.668 21.3589 14.5634 20.4635 15.668 20.4635H17.8346L20.2538 18.0444C21.5137 16.7845 23.668 17.6768 23.668 19.4586V29.8017C23.668 31.5836 21.5137 32.4759 20.2538 31.216ZM18.6631 22.4635H15.668V26.7968H18.6631L21.668 29.8017V19.4586L18.6631 22.4635Z" fill="#163746"/>
<path d="M29.3842 21.4246C28.9916 21.032 28.355 21.032 27.9624 21.4246C27.5698 21.8172 27.5698 22.4538 27.9624 22.8464L29.7462 24.6301L27.9624 26.4139C27.5698 26.8065 27.5698 27.4431 27.9624 27.8357C28.355 28.2283 28.9916 28.2283 29.3842 27.8357L31.1679 26.0519L32.9516 27.8356C33.3442 28.2282 33.9808 28.2282 34.3734 27.8356C34.766 27.443 34.766 26.8064 34.3734 26.4138L32.5897 24.6301L34.3734 22.8465C34.766 22.4539 34.766 21.8173 34.3734 21.4247C33.9808 21.0321 33.3442 21.0321 32.9516 21.4247L31.1679 23.2084L29.3842 21.4246Z" fill="#163746"/>
</svg>
