<svg width="49" height="49" viewBox="0 0 49 49" fill="none" xmlns="http://www.w3.org/2000/svg">
<rect x="6.66797" y="6.16553" width="36" height="36" rx="18" fill="#D4E9F2"/>
<path d="M20.2538 30.7511L17.8346 28.332H15.668C14.5634 28.332 13.668 27.4366 13.668 26.332V21.9987C13.668 20.8941 14.5634 19.9987 15.668 19.9987H17.8346L20.2538 17.5795C21.5137 16.3196 23.668 17.2119 23.668 18.9938V29.3369C23.668 31.1187 21.5137 32.011 20.2538 30.7511ZM18.6631 21.9987H15.668V26.332H18.6631L21.668 29.3369V18.9938L18.6631 21.9987Z" fill="#163746"/>
<path d="M29.3842 20.9598C28.9916 20.5672 28.355 20.5672 27.9624 20.9598C27.5698 21.3524 27.5698 21.9889 27.9624 22.3815L29.7462 24.1653L27.9624 25.9491C27.5698 26.3417 27.5698 26.9782 27.9624 27.3708C28.355 27.7634 28.9916 27.7634 29.3842 27.3708L31.1679 25.587L32.9516 27.3707C33.3442 27.7633 33.9808 27.7633 34.3734 27.3707C34.766 26.9781 34.766 26.3416 34.3734 25.949L32.5897 24.1653L34.3734 22.3816C34.766 21.989 34.766 21.3525 34.3734 20.9599C33.9808 20.5673 33.3442 20.5673 32.9516 20.9599L31.1679 22.7435L29.3842 20.9598Z" fill="#163746"/>
</svg>
