<svg width="49" height="49" viewBox="0 0 49 49" fill="none" xmlns="http://www.w3.org/2000/svg">
<rect x="6.66797" y="6.37354" width="36" height="36" rx="18" fill="#D4E9F2"/>
<path d="M17.668 16.3735C17.1157 16.3735 16.668 16.8213 16.668 17.3735V31.3735C16.668 31.9258 17.1157 32.3735 17.668 32.3735H21.668C22.2203 32.3735 22.668 31.9258 22.668 31.3735V17.3735C22.668 16.8213 22.2203 16.3735 21.668 16.3735H17.668Z" fill="#163746"/>
<path d="M27.668 16.3735C27.1157 16.3735 26.668 16.8213 26.668 17.3735V31.3735C26.668 31.9258 27.1157 32.3735 27.668 32.3735H31.668C32.2203 32.3735 32.668 31.9258 32.668 31.3735V17.3735C32.668 16.8213 32.2203 16.3735 31.668 16.3735H27.668Z" fill="#163746"/>
</svg>
