<svg width="48" height="49" viewBox="0 0 48 49" fill="none" xmlns="http://www.w3.org/2000/svg">
<path d="M17 16.9092C16.4477 16.9092 16 17.3569 16 17.9092V31.9092C16 32.4615 16.4477 32.9092 17 32.9092H21C21.5523 32.9092 22 32.4615 22 31.9092V17.9092C22 17.3569 21.5523 16.9092 21 16.9092H17Z" fill="#666666"/>
<path d="M27 16.9092C26.4477 16.9092 26 17.3569 26 17.9092V31.9092C26 32.4615 26.4477 32.9092 27 32.9092H31C31.5523 32.9092 32 32.4615 32 31.9092V17.9092C32 17.3569 31.5523 16.9092 31 16.9092H27Z" fill="#666666"/>
</svg>
