<svg width="49" height="49" viewBox="0 0 49 49" fill="none" xmlns="http://www.w3.org/2000/svg">
<rect x="6.83398" y="6.90918" width="36" height="36" rx="18" fill="#F1FBFE"/>
<path d="M17.834 16.9092C17.2817 16.9092 16.834 17.3569 16.834 17.9092V31.9092C16.834 32.4615 17.2817 32.9092 17.834 32.9092H21.834C22.3863 32.9092 22.834 32.4615 22.834 31.9092V17.9092C22.834 17.3569 22.3863 16.9092 21.834 16.9092H17.834Z" fill="#215369"/>
<path d="M27.834 16.9092C27.2817 16.9092 26.834 17.3569 26.834 17.9092V31.9092C26.834 32.4615 27.2817 32.9092 27.834 32.9092H31.834C32.3863 32.9092 32.834 32.4615 32.834 31.9092V17.9092C32.834 17.3569 32.3863 16.9092 31.834 16.9092H27.834Z" fill="#215369"/>
</svg>
