<svg width="21" height="14" viewBox="0 0 21 14" fill="none" xmlns="http://www.w3.org/2000/svg">
<path fill-rule="evenodd" clip-rule="evenodd" d="M11.6261 3.40497C10.8448 2.3027 9.16934 0.890947 6.57473 0.928975C6.02822 0.936985 5.58938 1.3823 5.58938 1.92887V6.08833H1.00001C0.44773 6.08833 1.46651e-05 6.53605 1.46651e-05 7.08833C1.46651e-05 7.64062 0.44773 8.08833 1.00001 8.08833H5.58938V12.0719C5.58938 12.3447 5.7008 12.6056 5.89781 12.7942C6.09483 12.9829 6.36034 13.0828 6.63284 13.071C7.28653 13.0426 8.28776 12.8728 9.27786 12.4569C10.1091 12.1079 11.0069 11.553 11.654 10.6908H16.479C16.74 10.8271 17.0753 10.9867 17.4289 11.1266C17.8715 11.3018 18.4738 11.5004 19.0183 11.5004C19.5706 11.5004 20.0183 11.0527 20.0183 10.5004V3.64304C20.0183 3.1946 19.7198 2.80099 19.2879 2.68008C18.6532 2.50236 17.4402 2.5271 16.351 3.40497H11.6261ZM7.58938 7.21394V10.9124C7.88069 10.8411 8.19333 10.7432 8.50341 10.613C9.25749 10.2963 9.89151 9.83364 10.2383 9.20677C10.4144 8.88842 10.7495 8.69083 11.1133 8.69083H16.7325C16.9053 8.69083 17.0752 8.73562 17.2255 8.82081C17.4022 8.9209 17.6961 9.07122 18.0183 9.20706V4.71328C17.8353 4.79102 17.6363 4.91542 17.4396 5.11207C17.2521 5.29961 16.9977 5.40497 16.7325 5.40497H11.0657C10.6842 5.40497 10.336 5.18792 10.1679 4.84543C9.9306 4.36172 9.08517 3.33448 7.58938 3.02101V6.96272C7.59454 7.00387 7.59719 7.04579 7.59719 7.08833C7.59719 7.13087 7.59454 7.17279 7.58938 7.21394Z" fill="#666666"/>
</svg>
