<svg width="48" height="49" viewBox="0 0 48 49" fill="none" xmlns="http://www.w3.org/2000/svg">
<rect x="6" y="6.40869" width="36" height="36" rx="18" fill="#E5E5E5"/>
<path d="M23 14.4087C23 13.8564 23.4477 13.4087 24 13.4087C30.0751 13.4087 35 18.3336 35 24.4087C35 30.4838 30.0751 35.4087 24 35.4087C23.4477 35.4087 23 34.961 23 34.4087C23 33.8564 23.4477 33.4087 24 33.4087C28.9706 33.4087 33 29.3793 33 24.4087C33 19.4381 28.9706 15.4087 24 15.4087C23.4477 15.4087 23 14.961 23 14.4087Z" fill="#333333"/>
<path d="M19.314 14.4538C19.8135 14.2182 20.3899 14.4899 20.5788 15.0089C20.7678 15.5278 20.497 16.0968 20.0024 16.3425C19.6606 16.5123 19.331 16.7032 19.0153 16.9137C18.5557 17.2201 17.9276 17.1705 17.5724 16.7476C17.2172 16.3247 17.2697 15.6897 17.723 15.3742C18.2245 15.0251 18.7564 14.7167 19.314 14.4538Z" fill="#333333"/>
<path d="M14.9656 18.1316C15.2811 17.6783 15.9161 17.6258 16.339 17.981C16.7619 18.3363 16.8115 18.9644 16.5051 19.4239C16.2946 19.7396 16.1036 20.0692 15.9339 20.411C15.6881 20.9056 15.1192 21.1764 14.6002 20.9875C14.0813 20.7985 13.8096 20.2222 14.0452 19.7226C14.3081 19.165 14.6165 18.6331 14.9656 18.1316Z" fill="#333333"/>
<path d="M14.1504 22.6701C13.6064 22.5748 13.0835 22.9386 13.0379 23.489C13.0128 23.7922 13 24.0989 13 24.4086C13 24.7183 13.0128 25.025 13.0379 25.3283C13.0835 25.8787 13.6064 26.2425 14.1504 26.1472C14.6944 26.0519 15.0525 25.5333 15.0179 24.9821C15.006 24.7927 15 24.6015 15 24.4086C15 24.2158 15.006 24.0246 15.0179 23.8352C15.0525 23.2839 14.6944 22.7653 14.1504 22.6701Z" fill="#333333"/>
<path d="M14.0452 29.0946C13.8096 28.5951 14.0813 28.0187 14.6002 27.8298C15.1192 27.6409 15.6881 27.9117 15.9339 28.4063C16.1036 28.748 16.2946 29.0776 16.5051 29.3934C16.8115 29.8529 16.7619 30.481 16.339 30.8362C15.9161 31.1914 15.2811 31.1389 14.9656 30.6856C14.6165 30.1841 14.3081 29.6522 14.0452 29.0946Z" fill="#333333"/>
<path d="M17.723 33.443C17.2697 33.1275 17.2172 32.4925 17.5724 32.0697C17.9276 31.6468 18.5557 31.5972 19.0153 31.9035C19.331 32.114 19.6606 32.305 20.0024 32.4748C20.497 32.7205 20.7678 33.2894 20.5788 33.8084C20.3899 34.3273 19.8135 34.599 19.314 34.3635C18.7564 34.1005 18.2245 33.7921 17.723 33.443Z" fill="#333333"/>
<path fill-rule="evenodd" clip-rule="evenodd" d="M21 20.2773C21 19.4786 21.8901 19.0022 22.5547 19.4453L28.7519 23.5767C29.3457 23.9726 29.3457 24.845 28.7519 25.2408L22.5547 29.3723C21.8901 29.8154 21 29.339 21 28.5403V20.2773ZM26.3944 24.4088L23 26.6718V22.1458L26.3944 24.4088Z" fill="#333333"/>
</svg>
