<svg width="60" height="61" viewBox="0 0 60 61" fill="none" xmlns="http://www.w3.org/2000/svg">
<g filter="url(#filter0_dd)">
<rect x="12" y="8.40869" width="36" height="36" rx="18" fill="#FAFAFA"/>
</g>
<path d="M29 16.4087C29 15.8564 29.4477 15.4087 30 15.4087C36.0751 15.4087 41 20.3336 41 26.4087C41 32.4838 36.0751 37.4087 30 37.4087C29.4477 37.4087 29 36.961 29 36.4087C29 35.8564 29.4477 35.4087 30 35.4087C34.9706 35.4087 39 31.3793 39 26.4087C39 21.4381 34.9706 17.4087 30 17.4087C29.4477 17.4087 29 16.961 29 16.4087Z" fill="#666666"/>
<path d="M25.314 16.4538C25.8135 16.2182 26.3899 16.4899 26.5788 17.0089C26.7678 17.5278 26.497 18.0968 26.0024 18.3425C25.6606 18.5123 25.331 18.7032 25.0153 18.9137C24.5557 19.2201 23.9276 19.1705 23.5724 18.7476C23.2172 18.3247 23.2697 17.6897 23.723 17.3742C24.2245 17.0251 24.7564 16.7167 25.314 16.4538Z" fill="#666666"/>
<path d="M20.9656 20.1316C21.2811 19.6783 21.9161 19.6258 22.339 19.981C22.7619 20.3363 22.8115 20.9644 22.5051 21.4239C22.2946 21.7396 22.1036 22.0692 21.9339 22.411C21.6881 22.9056 21.1192 23.1764 20.6002 22.9875C20.0813 22.7985 19.8096 22.2222 20.0452 21.7226C20.3081 21.165 20.6165 20.6331 20.9656 20.1316Z" fill="#666666"/>
<path d="M20.1504 24.6701C19.6064 24.5748 19.0835 24.9386 19.0379 25.489C19.0128 25.7922 19 26.0989 19 26.4086C19 26.7183 19.0128 27.025 19.0379 27.3283C19.0835 27.8787 19.6064 28.2425 20.1504 28.1472C20.6944 28.0519 21.0525 27.5333 21.0179 26.9821C21.006 26.7927 21 26.6015 21 26.4086C21 26.2158 21.006 26.0246 21.0179 25.8352C21.0525 25.2839 20.6944 24.7653 20.1504 24.6701Z" fill="#666666"/>
<path d="M20.0452 31.0946C19.8096 30.5951 20.0813 30.0187 20.6002 29.8298C21.1192 29.6409 21.6881 29.9117 21.9339 30.4063C22.1036 30.748 22.2946 31.0776 22.5051 31.3934C22.8115 31.8529 22.7619 32.481 22.339 32.8362C21.9161 33.1914 21.2811 33.1389 20.9656 32.6856C20.6165 32.1841 20.3081 31.6522 20.0452 31.0946Z" fill="#666666"/>
<path d="M23.723 35.443C23.2697 35.1275 23.2172 34.4925 23.5724 34.0697C23.9276 33.6468 24.5557 33.5972 25.0153 33.9035C25.331 34.114 25.6606 34.305 26.0024 34.4748C26.497 34.7205 26.7678 35.2894 26.5788 35.8084C26.3899 36.3273 25.8135 36.599 25.314 36.3635C24.7564 36.1005 24.2245 35.7921 23.723 35.443Z" fill="#666666"/>
<path fill-rule="evenodd" clip-rule="evenodd" d="M27 22.2773C27 21.4786 27.8901 21.0022 28.5547 21.4453L34.7519 25.5767C35.3457 25.9726 35.3457 26.845 34.7519 27.2408L28.5547 31.3723C27.8901 31.8154 27 31.339 27 30.5403V22.2773ZM32.3944 26.4088L29 28.6718V24.1458L32.3944 26.4088Z" fill="#666666"/>
<defs>
<filter id="filter0_dd" x="0" y="0.408691" width="60" height="60" filterUnits="userSpaceOnUse" color-interpolation-filters="sRGB">
<feFlood flood-opacity="0" result="BackgroundImageFix"/>
<feColorMatrix in="SourceAlpha" type="matrix" values="0 0 0 0 0 0 0 0 0 0 0 0 0 0 0 0 0 0 127 0" result="hardAlpha"/>
<feOffset/>
<feGaussianBlur stdDeviation="4"/>
<feColorMatrix type="matrix" values="0 0 0 0 0.180392 0 0 0 0 0.498039 0 0 0 0 0.631373 0 0 0 1 0"/>
<feBlend mode="normal" in2="BackgroundImageFix" result="effect1_dropShadow"/>
<feColorMatrix in="SourceAlpha" type="matrix" values="0 0 0 0 0 0 0 0 0 0 0 0 0 0 0 0 0 0 127 0" result="hardAlpha"/>
<feOffset dy="4"/>
<feGaussianBlur stdDeviation="6"/>
<feColorMatrix type="matrix" values="0 0 0 0 0.180392 0 0 0 0 0.498039 0 0 0 0 0.631373 0 0 0 0.25 0"/>
<feBlend mode="normal" in2="effect1_dropShadow" result="effect2_dropShadow"/>
<feBlend mode="normal" in="SourceGraphic" in2="effect2_dropShadow" result="shape"/>
</filter>
</defs>
</svg>
