<svg width="21" height="21" viewBox="0 0 21 21" fill="none" xmlns="http://www.w3.org/2000/svg">
<path d="M10.9753 13.0496C12.356 13.0496 13.4753 11.9304 13.4753 10.5496C13.4753 9.16893 12.356 8.04964 10.9753 8.04964C9.59455 8.04964 8.47526 9.16893 8.47526 10.5496C8.47526 11.9304 9.59455 13.0496 10.9753 13.0496Z" fill="white"/>
<path d="M2.57171 9.16649L1.95813 10.065C1.75875 10.3569 1.75875 10.7424 1.95813 11.0343L2.57171 11.9328C6.62386 17.8664 15.3267 17.8664 19.3788 11.9328L19.9924 11.0343C20.1918 10.7424 20.1918 10.3569 19.9924 10.065L19.3788 9.16649C15.3267 3.23292 6.62386 3.23291 2.57171 9.16649ZM18.0025 10.1064L18.3052 10.5496L18.0025 10.9929C14.6121 15.9575 7.33846 15.9575 3.94805 10.9929L3.64536 10.5496L3.94805 10.1064C7.33846 5.14183 14.6121 5.14183 18.0025 10.1064Z" fill="white"/>
</svg>
