<svg width="48" height="49" viewBox="0 0 48 49" fill="none" xmlns="http://www.w3.org/2000/svg">
<rect x="6" y="6.87354" width="36" height="36" rx="18" fill="#D4E9F2"/>
<path d="M23 14.8735C23 14.3213 23.4477 13.8735 24 13.8735C30.0751 13.8735 35 18.7984 35 24.8735C35 30.9487 30.0751 35.8735 24 35.8735C23.4477 35.8735 23 35.4258 23 34.8735C23 34.3213 23.4477 33.8735 24 33.8735C28.9706 33.8735 33 29.8441 33 24.8735C33 19.903 28.9706 15.8735 24 15.8735C23.4477 15.8735 23 15.4258 23 14.8735Z" fill="#163746"/>
<path d="M19.314 14.9186C19.8135 14.6831 20.3899 14.9547 20.5788 15.4737C20.7678 15.9927 20.497 16.5616 20.0024 16.8073C19.6606 16.9771 19.331 17.1681 19.0153 17.3786C18.5557 17.6849 17.9276 17.6353 17.5724 17.2124C17.2172 16.7895 17.2697 16.1546 17.723 15.8391C18.2245 15.49 18.7564 15.1816 19.314 14.9186Z" fill="#163746"/>
<path d="M14.9656 18.5965C15.2811 18.1432 15.9161 18.0907 16.339 18.4459C16.7619 18.8011 16.8115 19.4292 16.5051 19.8887C16.2946 20.2045 16.1036 20.5341 15.9339 20.8758C15.6881 21.3704 15.1192 21.6412 14.6002 21.4523C14.0813 21.2634 13.8096 20.687 14.0452 20.1875C14.3081 19.6299 14.6165 19.098 14.9656 18.5965Z" fill="#163746"/>
<path d="M14.1504 23.1349C13.6064 23.0396 13.0835 23.4034 13.0379 23.9538C13.0128 24.2571 13 24.5638 13 24.8735C13 25.1832 13.0128 25.4899 13.0379 25.7931C13.0835 26.3435 13.6064 26.7073 14.1504 26.612C14.6944 26.5167 15.0525 25.9981 15.0179 25.4469C15.006 25.2575 15 25.0663 15 24.8735C15 24.6806 15.006 24.4894 15.0179 24.3C15.0525 23.7488 14.6944 23.2302 14.1504 23.1349Z" fill="#163746"/>
<path d="M14.0452 29.5595C13.8096 29.0599 14.0813 28.4836 14.6002 28.2946C15.1192 28.1057 15.6881 28.3765 15.9339 28.8711C16.1036 29.2129 16.2946 29.5425 16.5051 29.8582C16.8115 30.3177 16.7619 30.9458 16.339 31.301C15.9161 31.6563 15.2811 31.6037 14.9656 31.1505C14.6165 30.649 14.3081 30.117 14.0452 29.5595Z" fill="#163746"/>
<path d="M17.723 33.9079C17.2697 33.5924 17.2172 32.9574 17.5724 32.5345C17.9276 32.1116 18.5557 32.062 19.0153 32.3684C19.331 32.5789 19.6606 32.7698 20.0024 32.9396C20.497 33.1853 20.7678 33.7543 20.5788 34.2732C20.3899 34.7922 19.8135 35.0639 19.314 34.8283C18.7564 34.5654 18.2245 34.257 17.723 33.9079Z" fill="#163746"/>
<path fill-rule="evenodd" clip-rule="evenodd" d="M21 20.7422C21 19.9435 21.8901 19.4671 22.5547 19.9101L28.7519 24.0416C29.3457 24.4374 29.3457 25.3099 28.7519 25.7057L22.5547 29.8372C21.8901 30.2802 21 29.8038 21 29.0051V20.7422ZM26.3944 24.8736L23 27.1366V22.6107L26.3944 24.8736Z" fill="#163746"/>
</svg>
