<svg width="23" height="21" viewBox="0 0 23 21" fill="none" xmlns="http://www.w3.org/2000/svg">
<path d="M10.4422 0.558651C10.8102 -0.186217 11.8734 -0.186217 12.2414 0.55865L14.8634 5.86595C15.0095 6.16174 15.292 6.36676 15.6188 6.41419L21.4817 7.26525C22.3046 7.3847 22.6332 8.39487 22.0377 8.97467L17.7953 13.1058C17.5588 13.3361 17.4509 13.6678 17.5067 13.9929L18.5082 19.8262C18.6488 20.6449 17.7886 21.2692 17.0526 20.8827L11.8086 18.1285C11.5164 17.9751 11.1672 17.9751 10.875 18.1285L5.63096 20.8827C4.89497 21.2692 4.03479 20.6449 4.17535 19.8262L5.17686 13.9929C5.23268 13.6678 5.12478 13.3361 4.88834 13.1058L0.645851 8.97467C0.0504281 8.39487 0.37899 7.3847 1.20184 7.26525L7.06482 6.41419C7.39158 6.36676 7.67405 6.16174 7.82018 5.86595L10.4422 0.558651Z" fill="#25837E"/>
</svg>
