<svg width="48" height="49" viewBox="0 0 48 49" fill="none" xmlns="http://www.w3.org/2000/svg">
<rect x="6" y="6.11816" width="36" height="36" rx="18" fill="#D4E9F2"/>
<path d="M23.1004 14.1768C23.4684 13.4319 24.5316 13.4319 24.8996 14.1768L27.5216 19.4841C27.6677 19.7799 27.9502 19.9849 28.277 20.0324L34.14 20.8834C34.9628 21.0029 35.2914 22.013 34.6959 22.5928L30.4535 26.724C30.217 26.9542 30.1091 27.286 30.1649 27.6111L31.1665 33.4443C31.307 34.263 30.4468 34.8874 29.7108 34.5008L24.4668 31.7467C24.1746 31.5932 23.8254 31.5932 23.5332 31.7467L18.2892 34.5008C17.5532 34.8874 16.693 34.263 16.8335 33.4443L17.8351 27.6111C17.8909 27.286 17.783 26.9542 17.5465 26.724L13.3041 22.5928C12.7086 22.013 13.0372 21.0029 13.86 20.8834L19.723 20.0324C20.0498 19.9849 20.3323 19.7799 20.4784 19.4841L23.1004 14.1768Z" fill="#163746"/>
</svg>
