<svg width="25" height="25" viewBox="0 0 25 25" fill="none" xmlns="http://www.w3.org/2000/svg">
<path d="M12.4189 5.61049L14.1475 9.10924C14.5854 9.9956 15.4312 10.609 16.4086 10.7509L20.2694 11.3113L17.4771 14.0304C16.769 14.7199 16.4454 15.714 16.6127 16.6887L17.2724 20.5307L13.8157 18.7153C12.9412 18.256 11.8967 18.256 11.0222 18.7153L7.56554 20.5307L8.22517 16.6887C8.39252 15.714 8.06889 14.7199 7.36078 14.0304L4.56844 11.3113L8.42928 10.7509C9.40665 10.609 10.2525 9.9956 10.6904 9.10924L12.4189 5.61049ZM13.3186 2.91607C12.9506 2.1712 11.8873 2.17121 11.5193 2.91607L8.89733 8.22337C8.7512 8.51916 8.46873 8.72418 8.14197 8.77161L2.27899 9.62267C1.45614 9.74212 1.12758 10.7523 1.723 11.3321L5.96549 15.4632C6.20193 15.6935 6.30983 16.0252 6.25401 16.3503L5.25249 22.1836C5.11193 23.0023 5.97212 23.6266 6.7081 23.2401L11.9521 20.486C12.2444 20.3325 12.5935 20.3325 12.8858 20.486L18.1298 23.2401C18.8658 23.6266 19.726 23.0023 19.5854 22.1836L18.5839 16.3503C18.5281 16.0252 18.636 15.6935 18.8724 15.4632L23.1149 11.3321C23.7103 10.7523 23.3818 9.74212 22.5589 9.62267L16.6959 8.77161C16.3692 8.72418 16.0867 8.51916 15.9406 8.22337L13.3186 2.91607Z" fill="white"/>
</svg>
