<svg width="24" height="25" viewBox="0 0 24 25" fill="none" xmlns="http://www.w3.org/2000/svg">
<path d="M12 4.80141L13.7285 8.30016C14.1664 9.18652 15.0123 9.79991 15.9897 9.94178L19.8505 10.5022L17.0582 13.2213C16.35 13.9108 16.0264 14.9049 16.1938 15.8797L16.8534 19.7216L13.3968 17.9062C12.5223 17.4469 11.4777 17.4469 10.6032 17.9062L7.1466 19.7216L7.80622 15.8797C7.97358 14.9049 7.64995 13.9108 6.94183 13.2213L4.1495 10.5022L8.01033 9.94178C8.98771 9.79991 9.8336 9.18652 10.2715 8.30016L12 4.80141ZM12.8996 2.10699C12.5316 1.36212 11.4684 1.36212 11.1004 2.10699L8.47838 7.41429C8.33225 7.71008 8.04978 7.9151 7.72302 7.96253L1.86005 8.81359C1.03719 8.93304 0.708631 9.94321 1.30405 10.523L5.54655 14.6542C5.78299 14.8844 5.89088 15.2161 5.83506 15.5412L4.83355 21.3745C4.69299 22.1932 5.55318 22.8175 6.28916 22.431L11.5332 19.6769C11.8254 19.5234 12.1746 19.5234 12.4668 19.6769L17.7108 22.431C18.4468 22.8175 19.307 22.1932 19.1665 21.3745L18.1649 15.5412C18.1091 15.2161 18.217 14.8844 18.4535 14.6542L22.6959 10.523C23.2914 9.94321 22.9628 8.93304 22.14 8.81359L16.277 7.96253C15.9502 7.9151 15.6677 7.71008 15.5216 7.41429L12.8996 2.10699Z" fill="#666666"/>
</svg>
