<svg width="23" height="22" viewBox="0 0 23 22" fill="none" xmlns="http://www.w3.org/2000/svg">
<path d="M10.8465 1.05865C11.2145 0.313783 12.2777 0.313783 12.6457 1.05865L15.2677 6.36595C15.4138 6.66174 15.6963 6.86676 16.0231 6.91419L21.886 7.76525C22.7089 7.8847 23.0375 8.89487 22.442 9.47467L18.1996 13.6058C17.9631 13.8361 17.8552 14.1678 17.911 14.4929L18.9125 20.3262C19.0531 21.1449 18.1929 21.7692 17.4569 21.3827L12.2129 18.6285C11.9207 18.4751 11.5715 18.4751 11.2793 18.6285L6.03525 21.3827C5.29927 21.7692 4.43908 21.1449 4.57964 20.3262L5.58116 14.4929C5.63698 14.1678 5.52908 13.8361 5.29264 13.6058L1.05015 9.47467C0.454725 8.89487 0.783287 7.8847 1.60614 7.76525L7.46912 6.91419C7.79588 6.86676 8.07835 6.66174 8.22448 6.36595L10.8465 1.05865Z" fill="#666666"/>
</svg>
