<svg width="48" height="49" viewBox="0 0 48 49" fill="none" xmlns="http://www.w3.org/2000/svg">
<rect x="6" y="6.65332" width="36" height="36" rx="18" fill="#FAFAFA"/>
<path d="M24 17.4064L25.7285 20.9051C26.1664 21.7915 27.0123 22.4049 27.9897 22.5468L31.8505 23.1072L29.0582 25.8263C28.35 26.5158 28.0264 27.5099 28.1938 28.4846L28.8534 32.3266L25.3968 30.5112C24.5223 30.0519 23.4777 30.0519 22.6032 30.5112L19.1466 32.3266L19.8062 28.4846C19.9736 27.5099 19.6499 26.5158 18.9418 25.8263L16.1495 23.1072L20.0103 22.5468C20.9877 22.4049 21.8336 21.7915 22.2715 20.9051L24 17.4064ZM24.8996 14.712C24.5316 13.9671 23.4684 13.9671 23.1004 14.712L20.4784 20.0193C20.3323 20.3151 20.0498 20.5201 19.723 20.5675L13.86 21.4186C13.0372 21.538 12.7086 22.5482 13.3041 23.128L17.5465 27.2591C17.783 27.4894 17.8909 27.8211 17.8351 28.1462L16.8335 33.9795C16.693 34.7982 17.5532 35.4225 18.2892 35.036L23.5332 32.2819C23.8254 32.1284 24.1746 32.1284 24.4668 32.2819L29.7108 35.036C30.4468 35.4225 31.307 34.7982 31.1665 33.9795L30.1649 28.1462C30.1091 27.8211 30.217 27.4894 30.4535 27.2591L34.6959 23.128C35.2914 22.5482 34.9628 21.538 34.14 21.4186L28.277 20.5675C27.9502 20.5201 27.6677 20.3151 27.5216 20.0193L24.8996 14.712Z" fill="#B3B3B3"/>
</svg>
