<svg width="48" height="49" viewBox="0 0 48 49" fill="none" xmlns="http://www.w3.org/2000/svg">
<rect x="6" y="6.11816" width="36" height="36" rx="18" fill="#D4E9F2"/>
<path d="M24 16.8712L25.7285 20.37C26.1664 21.2563 27.0123 21.8697 27.9897 22.0116L31.8505 22.572L29.0582 25.2911C28.35 25.9806 28.0264 26.9747 28.1938 27.9495L28.8534 31.7915L25.3968 29.9761C24.5223 29.5168 23.4777 29.5168 22.6032 29.9761L19.1466 31.7915L19.8062 27.9495C19.9736 26.9747 19.6499 25.9806 18.9418 25.2911L16.1495 22.572L20.0103 22.0116C20.9877 21.8697 21.8336 21.2563 22.2715 20.37L24 16.8712ZM24.8996 14.1768C24.5316 13.4319 23.4684 13.4319 23.1004 14.1768L20.4784 19.4841C20.3323 19.7799 20.0498 19.9849 19.723 20.0324L13.86 20.8834C13.0372 21.0029 12.7086 22.013 13.3041 22.5928L17.5465 26.724C17.783 26.9542 17.8909 27.286 17.8351 27.6111L16.8335 33.4443C16.693 34.263 17.5532 34.8874 18.2892 34.5008L23.5332 31.7467C23.8254 31.5932 24.1746 31.5932 24.4668 31.7467L29.7108 34.5008C30.4468 34.8874 31.307 34.263 31.1665 33.4443L30.1649 27.6111C30.1091 27.286 30.217 26.9542 30.4535 26.724L34.6959 22.5928C35.2914 22.013 34.9628 21.0029 34.14 20.8834L28.277 20.0324C27.9502 19.9849 27.6677 19.7799 27.5216 19.4841L24.8996 14.1768Z" fill="#163746"/>
</svg>
