<svg width="24" height="25" viewBox="0 0 24 25" fill="none" xmlns="http://www.w3.org/2000/svg">
<path d="M11 2.25977C11 1.70748 11.4477 1.25977 12 1.25977C18.0751 1.25977 23 6.18463 23 12.2598C23 18.3349 18.0751 23.2598 12 23.2598C11.4477 23.2598 11 22.812 11 22.2598C11 21.7075 11.4477 21.2598 12 21.2598C16.9706 21.2598 21 17.2303 21 12.2598C21 7.2892 16.9706 3.25977 12 3.25977C11.4477 3.25977 11 2.81205 11 2.25977Z" fill="#666666"/>
<path d="M7.31401 2.30487C7.81355 2.06931 8.3899 2.34098 8.57883 2.85994C8.76777 3.3789 8.49697 3.94785 8.00235 4.19356C7.66061 4.36333 7.331 4.55429 7.01527 4.76479C6.55575 5.07116 5.92764 5.02157 5.57242 4.59867C5.2172 4.17578 5.26972 3.54081 5.723 3.22528C6.22449 2.8762 6.75642 2.5678 7.31401 2.30487Z" fill="#666666"/>
<path d="M2.96558 5.9827C3.28111 5.52942 3.91608 5.4769 4.33897 5.83212C4.76187 6.18734 4.81146 6.81544 4.50509 7.27497C4.29459 7.5907 4.10363 7.92031 3.93386 8.26205C3.68815 8.75667 3.1192 9.02746 2.60024 8.83853C2.08128 8.6496 1.80962 8.07325 2.04517 7.57371C2.3081 7.01612 2.6165 6.48419 2.96558 5.9827Z" fill="#666666"/>
<path d="M2.15043 10.5211C1.60643 10.4258 1.08345 10.7897 1.0379 11.3401C1.0128 11.6433 1 11.95 1 12.2597C1 12.5694 1.0128 12.8761 1.0379 13.1793C1.08345 13.7297 1.60643 14.0936 2.15043 13.9983C2.69443 13.903 3.05245 13.3844 3.01791 12.8332C3.00604 12.6437 3 12.4525 3 12.2597C3 12.0669 3.00604 11.8757 3.01791 11.6862C3.05245 11.135 2.69443 10.6164 2.15043 10.5211Z" fill="#666666"/>
<path d="M2.04517 16.9457C1.80962 16.4462 2.08128 15.8698 2.60024 15.6809C3.1192 15.4919 3.68815 15.7627 3.93386 16.2573C4.10363 16.5991 4.29459 16.9287 4.5051 17.2444C4.81146 17.704 4.76187 18.3321 4.33897 18.6873C3.91608 19.0425 3.28111 18.99 2.96558 18.5367C2.6165 18.0352 2.3081 17.5033 2.04517 16.9457Z" fill="#666666"/>
<path d="M5.723 21.2941C5.26972 20.9786 5.21721 20.3436 5.57242 19.9207C5.92764 19.4978 6.55575 19.4482 7.01527 19.7546C7.331 19.9651 7.66061 20.1561 8.00235 20.3258C8.49697 20.5716 8.76777 21.1405 8.57883 21.6595C8.3899 22.1784 7.81355 22.4501 7.31401 22.2145C6.75642 21.9516 6.22449 21.6432 5.723 21.2941Z" fill="#666666"/>
<path fill-rule="evenodd" clip-rule="evenodd" d="M9 8.12839C9 7.32969 9.89015 6.8533 10.5547 7.29634L16.7519 11.4278C17.3457 11.8236 17.3457 12.6961 16.7519 13.0919L10.5547 17.2234C9.89015 17.6664 9 17.1901 9 16.3914V8.12839ZM14.3944 12.2599L11 14.5228V9.99691L14.3944 12.2599Z" fill="#666666"/>
</svg>
