<svg width="24" height="24" viewBox="0 0 24 24" fill="none" xmlns="http://www.w3.org/2000/svg">
<g id="System icon / Visible on">
<g id="Vector">
<path d="M12 15C13.6569 15 15 13.6569 15 12C15 10.3431 13.6569 9 12 9C10.3431 9 9 10.3431 9 12C9 13.6569 10.3431 15 12 15Z" fill="#FFFFFF"/>
<path d="M1.91574 10.3402L1.17944 11.4184C0.940186 11.7687 0.940186 12.2313 1.17944 12.5816L1.91574 13.6598C6.77831 20.7801 17.2217 20.7801 22.0843 13.6598L22.8206 12.5816C23.0598 12.2313 23.0598 11.7687 22.8206 11.4184L22.0843 10.3402C17.2217 3.21993 6.77832 3.21993 1.91574 10.3402ZM20.4327 11.4681L20.7959 12L20.4326 12.5319C16.3642 18.4894 7.63584 18.4894 3.56735 12.5319L3.20412 12L3.56735 11.4681C7.63584 5.51062 16.3642 5.51062 20.4327 11.4681Z" fill="#FFFFFF"/>
</g>
</g>
</svg>
