<svg width="23" height="19" viewBox="0 0 23 19" fill="none" xmlns="http://www.w3.org/2000/svg">
<path d="M17.5612 1.07816C17.1019 0.771446 16.481 0.895129 16.1742 1.35442C15.8675 1.8137 15.9912 2.43467 16.4505 2.74138C18.5405 4.13713 20.0059 6.7963 20.0059 9.90977C20.0059 13.0233 18.5405 15.6824 16.4505 17.0782C15.9912 17.3849 15.8675 18.0058 16.1742 18.4651C16.481 18.9244 17.1019 19.0481 17.5612 18.7414C20.2536 16.9434 22.0059 13.6332 22.0059 9.90977C22.0059 6.18633 20.2536 2.87616 17.5612 1.07816Z" fill="#666666"/>
<path d="M4.17253 14.0764L6.59165 16.4956C7.85157 17.7555 10.0059 16.8632 10.0059 15.0813V4.7382C10.0059 2.95639 7.85157 2.06406 6.59164 3.32399L4.17253 5.74311H2.00586C0.90129 5.74311 0.00585938 6.63854 0.00585938 7.74311V12.0764C0.00585938 13.181 0.901291 14.0764 2.00586 14.0764H4.17253ZM5.00095 7.74311L8.00586 4.7382V15.0813L5.00095 12.0764H2.00586V7.74311H5.00095Z" fill="#666666"/>
<path d="M13.1742 5.35442C13.481 4.89513 14.1019 4.77145 14.5612 5.07816C16.058 6.07772 17.0059 7.89556 17.0059 9.90977C17.0059 11.924 16.058 13.7418 14.5612 14.7414C14.1019 15.0481 13.481 14.9244 13.1742 14.4651C12.8675 14.0058 12.9912 13.3849 13.4505 13.0782C14.3449 12.4809 15.0059 11.314 15.0059 9.90977C15.0059 8.50552 14.3449 7.33869 13.4505 6.74138C12.9912 6.43467 12.8675 5.8137 13.1742 5.35442Z" fill="#666666"/>
</svg>
