<svg width="21" height="16" viewBox="0 0 21 16" fill="none" xmlns="http://www.w3.org/2000/svg">
<path d="M6.58579 14.5857L4.16667 12.1666H2C0.895431 12.1666 0 11.2712 0 10.1666V5.83325C0 4.72869 0.89543 3.83325 2 3.83325H4.16667L6.58578 1.41414C7.84571 0.154208 10 1.04654 10 2.82835V13.1715C10 14.9533 7.84572 15.8456 6.58579 14.5857ZM4.99509 5.83325H2V10.1666H4.99509L8 13.1715V2.82835L4.99509 5.83325Z" fill="#666666"/>
<path d="M15.7162 4.79438C15.3236 4.40177 14.6871 4.40177 14.2945 4.79438C13.9018 5.18698 13.9018 5.82352 14.2945 6.21613L16.0782 7.99989L14.2945 9.78366C13.9019 10.1763 13.9019 10.8128 14.2945 11.2054C14.6871 11.598 15.3236 11.598 15.7162 11.2054L17.5 9.42164L19.2836 11.2053C19.6762 11.5979 20.3128 11.5979 20.7054 11.2053C21.098 10.8127 21.098 10.1762 20.7054 9.78356L18.9217 7.99989L20.7054 6.21622C21.098 5.82361 21.098 5.18708 20.7054 4.79447C20.3128 4.40186 19.6763 4.40186 19.2836 4.79447L17.5 6.57814L15.7162 4.79438Z" fill="#666666"/>
</svg>
