<svg width="49" height="49" viewBox="0 0 49 49" fill="none" xmlns="http://www.w3.org/2000/svg">
<rect x="6.66797" y="6.63037" width="36" height="36" rx="18" fill="#D4E9F2"/>
<path d="M31.2233 15.7989C30.764 15.4921 30.1431 15.6158 29.8364 16.0751C29.5296 16.5344 29.6533 17.1554 30.1126 17.4621C32.2026 18.8578 33.668 21.517 33.668 24.6305C33.668 27.744 32.2026 30.4031 30.1126 31.7989C29.6533 32.1056 29.5296 32.7265 29.8364 33.1858C30.1431 33.6451 30.764 33.7688 31.2233 33.4621C33.9157 31.6641 35.668 28.3539 35.668 24.6305C35.668 20.907 33.9157 17.5969 31.2233 15.7989Z" fill="#163746"/>
<path d="M17.8346 28.7971L20.2538 31.2163C21.5137 32.4762 23.668 31.5839 23.668 29.802V19.4589C23.668 17.6771 21.5137 16.7848 20.2538 18.0447L17.8346 20.4638H15.668C14.5634 20.4638 13.668 21.3592 13.668 22.4638V26.7971C13.668 27.9017 14.5634 28.7971 15.668 28.7971H17.8346ZM18.6631 22.4638L21.668 19.4589V29.802L18.6631 26.7971H15.668V22.4638H18.6631Z" fill="#163746"/>
<path d="M26.8364 20.0751C27.1431 19.6158 27.764 19.4921 28.2233 19.7989C29.7201 20.7984 30.668 22.6163 30.668 24.6305C30.668 26.6447 29.7201 28.4625 28.2233 29.4621C27.764 29.7688 27.1431 29.6451 26.8364 29.1858C26.5296 28.7265 26.6533 28.1056 27.1126 27.7989C28.007 27.2016 28.668 26.0347 28.668 24.6305C28.668 23.2262 28.007 22.0594 27.1126 21.4621C26.6533 21.1554 26.5296 20.5344 26.8364 20.0751Z" fill="#163746"/>
</svg>
