<svg width="21" height="21" viewBox="0 0 21 21" fill="none" xmlns="http://www.w3.org/2000/svg">
<path d="M4.5 8.34473C4.5 7.79244 4.94772 7.34473 5.5 7.34473L10.5 7.34473C11.0523 7.34473 11.5 7.79244 11.5 8.34473C11.5 8.89701 11.0523 9.34473 10.5 9.34473L5.5 9.34473C4.94771 9.34473 4.5 8.89701 4.5 8.34473Z" fill="#666666"/>
<path fill-rule="evenodd" clip-rule="evenodd" d="M13.9633 12.8938C14.9274 11.6321 15.5 10.0553 15.5 8.34473C15.5 4.20259 12.1421 0.844727 8 0.844727C3.85786 0.844727 0.5 4.20259 0.5 8.34473C0.5 12.4869 3.85786 15.8447 8 15.8447C9.71054 15.8447 11.2873 15.2721 12.5491 14.3081L18.7928 20.5517C19.1833 20.9423 19.8165 20.9423 20.207 20.5517C20.5975 20.1612 20.5975 19.528 20.207 19.1375L13.9633 12.8938ZM8 13.8447C11.0376 13.8447 13.5 11.3823 13.5 8.34473C13.5 5.30716 11.0376 2.84473 8 2.84473C4.96243 2.84473 2.5 5.30716 2.5 8.34473C2.5 11.3823 4.96243 13.8447 8 13.8447Z" fill="#666666"/>
</svg>
