<svg id="Layer_2" data-name="Layer 2" xmlns="http://www.w3.org/2000/svg" viewBox="0 0 272.26 107.09"><defs><style>.cls-1,.cls-4{fill:none}.cls-1{stroke:#fff;stroke-width:1.5px;stroke-linecap:round}.cls-3{fill:#fff}</style></defs><path class="cls-1" d="M86 67.19a45.26 45.26 0 0 0-56.61-63.3M16.14 80a45.23 45.23 0 0 0 64.19-4.56"/><path d="M11.76 16.4A45.26 45.26 0 0 0 7 68.94" stroke="#fff" stroke-width="1.5" fill="none"/><path class="cls-3" d="M117 66.27h18.78v5.37H111V30.05h6zM161.35 70.05c-2.51 1.65-3.54 2.14-5.25 2.14-2.38 0-3.66-.85-4.15-2.81a11.76 11.76 0 0 1-7.38 2.81 6.61 6.61 0 0 1-6.7-6.71c0-5.43 4.94-7.07 9.33-8.66l4.8-1.71v-1.46c0-3.41-1.64-4.82-4.93-4.82-3 0-6 1.41-8.66 4.52v-5.92c2.13-2.5 5.12-3.72 9.08-3.72 5.55 0 9.94 2.81 9.94 9v14.11c0 1 .37 1.41 1 1.41a6.53 6.53 0 0 0 2.87-1.47zM152 58.1c-4.63 1.59-8.65 3.17-8.65 6.41a3.73 3.73 0 0 0 3.9 3.84 7 7 0 0 0 4.75-2.26zM186.49 69a17.84 17.84 0 0 1-10.92 3.23c-8.53 0-13.29-7-13.29-14.58 0-8.29 5.24-13.9 12.81-13.9 7.25 0 11.89 4.94 11.89 15.06h-19.27c.85 5.43 4 8.24 9.21 8.24a17.38 17.38 0 0 0 9.57-3.3zm-4.88-13.78c-.18-4.15-2.56-6.77-6.4-6.77-4.15 0-6.65 2.44-7.38 6.77zM197.17 44.26v6.28h.12c2.75-4.82 5.37-6.83 7.93-6.83 2.19 0 4.27 1 6.52 3.17l-2.86 4.7c-1.65-1.59-3.78-2.69-5.06-2.69-3.72 0-6.65 3.72-6.65 8.42v14.33h-5.43V44.26zM235.83 71.64h-11.52c-8.18 0-13.3-5.55-13.3-14.33 0-7.93 5.67-13.6 13.66-13.6a16.1 16.1 0 0 1 5.73 1.1V30.05h5.43zm-5.43-22a12.55 12.55 0 0 0-5.06-1c-5.24 0-8.78 3.78-8.78 9.51 0 5.12 2.07 9 8.35 9h5.49zM264 70.05c-2.5 1.65-3.54 2.14-5.24 2.14-2.38 0-3.66-.85-4.15-2.81a11.8 11.8 0 0 1-7.38 2.81 6.61 6.61 0 0 1-6.71-6.71c0-5.43 4.94-7.07 9.33-8.66l4.82-1.71v-1.46c0-3.41-1.64-4.82-4.94-4.82-3 0-6 1.41-8.66 4.52v-5.92c2.14-2.5 5.12-3.72 9.09-3.72 5.55 0 9.94 2.81 9.94 9v14.11c0 1 .36 1.41 1 1.41a6.46 6.46 0 0 0 2.9-1.47zm-9.32-11.95c-4.63 1.59-8.66 3.17-8.66 6.41a3.74 3.74 0 0 0 3.91 3.84 7 7 0 0 0 4.75-2.26zM272.25 71.64h-5.43V30.05h5.43zM151.78 95.47a3.25 3.25 0 0 1 2.52-1.27c1.64 0 2.86 1.12 2.86 3.42v5.16h-1.67v-5.21c0-1.24-.63-2-1.65-2a2.72 2.72 0 0 0-2.09 1.21v6h-1.67V90h1.67zM166 102a5.43 5.43 0 0 1-3.35 1c-2.63 0-4.09-2.16-4.09-4.48 0-2.55 1.61-4.27 3.94-4.27s3.65 1.51 3.65 4.62h-5.92a2.64 2.64 0 0 0 2.83 2.53 5.32 5.32 0 0 0 2.94-1zm-1.5-4.23a1.92 1.92 0 0 0-2-2.08 2.18 2.18 0 0 0-2.26 2.08zM169.67 102.78H168V90h1.67zM173.62 107.09H172V94.37h2.88c3.08 0 4.74 1.49 4.74 4.27a4.12 4.12 0 0 1-4.27 4.31 4.34 4.34 0 0 1-1.69-.38zm0-6a3.6 3.6 0 0 0 1.58.38 2.67 2.67 0 0 0 2.68-2.83 2.47 2.47 0 0 0-2.74-2.76h-1.52zM181.8 92.81a1 1 0 1 1 1-1 1 1 0 0 1-1 1zm.82 10H181v-8.44h1.67zM186.65 95.47a3.23 3.23 0 0 1 2.51-1.27c1.59 0 2.87 1.08 2.87 3.39v5.19h-1.63v-5.21c0-1.24-.64-2-1.65-2a2.75 2.75 0 0 0-2.1 1.21v6H185v-8.41h1.67zM201.1 95.66h-1.73a2.32 2.32 0 0 1 .88 1.83 3 3 0 0 1-.79 1.9c-1.12 1.2-3.41.6-3.41 1.59 0 .47.89.75 2.57 1.09s2.44 1.27 2.44 2.34c0 1.67-1.48 2.68-4 2.68-2.27 0-3.88-1.07-3.88-2.55 0-1.24.65-2 2.11-2.32-.58-.36-.84-.7-.84-1.07 0-.55.53-1 1.33-1.2a3.11 3.11 0 0 1-1.4-1.07 2.67 2.67 0 0 1-.45-1.57c0-1.8 1.4-2.9 3.67-2.9h3.47zm-4.41 7.53c-1.12 0-1.91.52-1.91 1.27s.83 1.3 2.34 1.3 2.33-.45 2.33-1.22c0-1.07-1.73-1.35-2.76-1.35zm.43-7.38a1.61 1.61 0 0 0-1.67 1.52 1.65 1.65 0 0 0 3.3 0 1.58 1.58 0 0 0-1.63-1.52zM212.49 96.54a4.71 4.71 0 0 0-2.44-.88c-.68 0-1.11.32-1.11.77s.57.82 2.05 1.68 1.89 1.5 1.89 2.36a2.53 2.53 0 0 1-2.77 2.48 5.87 5.87 0 0 1-2.93-.77v-1.8a5.36 5.36 0 0 0 2.76 1.1c.67 0 1.23-.35 1.23-1 0-1.16-3.93-1.78-3.93-4 0-1.42 1.09-2.28 2.77-2.28a5.24 5.24 0 0 1 2.48.69zM221.33 102.29a2.66 2.66 0 0 1-1.61.66c-.73 0-1.13-.27-1.28-.87a3.58 3.58 0 0 1-2.27.87 2 2 0 0 1-2.06-2.07c0-1.66 1.52-2.17 2.87-2.66l1.48-.52v-.45c0-1-.51-1.48-1.52-1.48a3.49 3.49 0 0 0-2.66 1.39v-1.82a3.45 3.45 0 0 1 2.79-1.14c1.71 0 3.06.86 3.06 2.77v4.33c0 .32.11.43.32.43a2 2 0 0 0 .88-.45zm-2.87-3.67c-1.42.49-2.66 1-2.66 2a1.15 1.15 0 0 0 1.2 1.18 2.16 2.16 0 0 0 1.46-.7zM220.6 94.37h1.81l2.27 5.17 2.21-5.17h1.78L225 103h-.56zM236.41 102a5.44 5.44 0 0 1-3.36 1c-2.62 0-4.08-2.16-4.08-4.48 0-2.55 1.61-4.27 3.93-4.27s3.66 1.51 3.66 4.62h-5.92a2.64 2.64 0 0 0 2.83 2.53 5.34 5.34 0 0 0 2.94-1zm-1.5-4.23a1.93 1.93 0 0 0-2-2.08 2.19 2.19 0 0 0-2.27 2.08zM244.67 102.78H243V90h1.67zM247.94 92.81a1 1 0 1 1 1-1 1 1 0 0 1-1 1zm.83 10h-1.67v-8.44h1.67zM250 94.37h1.82l2.27 5.17 2.21-5.17h1.78l-3.67 8.63h-.56zM265.4 102a5.43 5.43 0 0 1-3.35 1c-2.62 0-4.09-2.16-4.09-4.48 0-2.55 1.62-4.27 3.94-4.27s3.65 1.51 3.65 4.62h-5.92a2.64 2.64 0 0 0 2.83 2.53 5.32 5.32 0 0 0 2.94-1zm-1.5-4.23a1.92 1.92 0 0 0-2-2.08 2.18 2.18 0 0 0-2.27 2.08zM271.87 96.54a4.71 4.71 0 0 0-2.44-.88c-.68 0-1.11.32-1.11.77s.56.82 2.05 1.68 1.89 1.5 1.89 2.36a2.54 2.54 0 0 1-2.78 2.48 5.86 5.86 0 0 1-2.92-.77v-1.8a5.36 5.36 0 0 0 2.76 1.1c.67 0 1.23-.35 1.23-1 0-1.16-3.93-1.78-3.93-4 0-1.42 1.08-2.28 2.77-2.28a5.24 5.24 0 0 1 2.48.69zM110.93 79.35h161.29v3.12H110.93z"/><path class="cls-4" d="M23.82 49.29a5 5 0 0 0 .65.7C26 49.45 28 48.71 28 48.71a15.2 15.2 0 0 1-4.85-2.21c.18.97.5 1.95.67 2.79zM52.43 45.27a12.52 12.52 0 0 1-7.73.29 37.13 37.13 0 0 0-3.82 1.2 4.44 4.44 0 0 1 3.12 2.9c1-2.7 5.73-3.89 8.31-.79 1.65-2.27 4.58-2.75 7.88-.55a10.36 10.36 0 0 1-.46-2 18.38 18.38 0 0 1-7.3-1.05zM29.54 62.36a23 23 0 0 1 2.1 2 7.22 7.22 0 0 1 0-2.89 5.71 5.71 0 0 1-2.1.89zM37.57 36.44c-4.26-.17-9.52-1.56-10.53-2.23-.37.59-.56.85-.85 1.34.78.65 3.51 2.19 5.18 4.47 4.06-1 9.63 1.46 11 0-1.07-2.48-.76-4.68-1-6.63-.01-.04-2.17 3-3.8 3.05z"/><path class="cls-3" d="M91.76 77c-3-2.07-6.17-.08-6.13-3.24.22-6.19 2.56-11.75.5-18.13 0 0 1-9.49.38-13.13-.38-2.21-1.79-5.49-4.17-7a31.71 31.71 0 0 0-6.92-2.61c-.22-.49-.76-1.35-.88-1.68a6.09 6.09 0 0 0 3.87-6.3C78 14 73.07 11.78 65.65 11.71s-12.36 4.75-7.11 8.05c.2 2.5-1 4.15-1.78 5.75-.93 1.77.46 2.07.89 2.67.71 1.08.06 2.55.55 3.69 1 1.47 4.47 1.62 5.81 1.36v.38a22.74 22.74 0 0 0-3.9 1.4 81.38 81.38 0 0 0-8.39 2c-1 0-2.15-.34-2.26-.84-.32-2.61-1-4.66-1.44-7.27 0-3.08 2.45-4.6 4.26-5.53a2.28 2.28 0 0 0 .8-3.92 3.82 3.82 0 0 0-2.84-.79c0-.16-.16-1.43-.18-1.7 1.72 0 2.06-2.22 1.79-2.93-1.44-4.51-8-5.62-10.8-.06-2 4.72-4.2 7-6.86 12.32a13.79 13.79 0 0 0-4.93-2.45 12.09 12.09 0 0 0-1.86-1.5c.68 0 1.42-1.77 1.69-2.64.4-1.15 2.35-.35 1.95-2.39-.91-3.68.33-4.17.63-6.74 3.14-1.14 1.8-3.93.1-5.6C27.85.78 15-5.36 10.32 12.9c-1.09 4.42 2.78 5.27 3.58 5.56L13.21 20C7.54 25.32-.55 35.71 6.87 56.12c.58 2-.51 3.78 1.25 8.14-4 1.88-1.07 4.92-1.82 10.86-.16 2.45 2.06 6.19 3.47 6.19h6.79c1 0 .79-4.92-2.43-5.73a12.64 12.64 0 0 0 0-1.53c6.5 4.67 10.49 7.1 17.7 8.06 7.88 1 9.28-5.78 8.48-8.25 2.69-2.43 6.95-3.86 7.58-6.81a38.52 38.52 0 0 0 6 11c3.89 4.34 11.25 3.68 14.68 3.17 2.31-.35 5.67-2.22 7.69-8.86a55.6 55.6 0 0 0 2.09-6.72c-.07 1.84 1.36 7.22 1.32 11.31.09 4.36 1.81 4.33 1.81 4.33h11.65c0-2.22-.26-3.37-1.37-4.28zm-27-63.81c12-1.12 11.68 7.39 11.93 11 .11 1.68-.4 4.58-2.58 5.47-1 .24-6.07-.64-7.87-1s-1.71-2.5-1.82-3.53a42.59 42.59 0 0 0-.65-4.49c-.3-1.44-2.28-1.4-3.61-1.76-4.49-1.75-2.25-5.24 4.58-5.74zM50.93 38.3c-.34.4-1.69 2.33-1.69 2.33L44.45 40s3.24-2.18 3.77-2.55a3.6 3.6 0 0 0 2.71.85zm-2.86-2.11c-.85.53-3.56 1.94-4.49 2.5-.71-.93-.62-3.28-.62-3.28l4.3-2.41a26.43 26.43 0 0 1 .81 3.19zm-5.31-2.44c.11-1.47.27-3.18.41-3.93 1.14-.09 2.41-.2 3.41-.37 0 0 .33 2.41.36 2.41zm8.06-11.16c-2.22.7-3.77 3-4.14 5.78l-3.36.2a21.15 21.15 0 0 1 .77-3.57c.53-2.39 3.28-4.32 4.73-4.73 4.18-1.06 4.1 1.64 2 2.32zM44.5 22l1.1-4.81h2.91s.13 1.78.1 1.71A8.64 8.64 0 0 0 44.5 22zm-32.71-9.25c4.65-16.18 14.93-10.41 19.6-6.26.77.82.89 2.21-.06 2.26-1.57.11-4.28-.18-5.82.51-2.33 1.35-2.53 4.27-4.27 6.44-1.72 1.94-10.75 2.59-9.45-2.95zM32.26 80.9c-8.93-.81-17-7.93-18.74-8.76-.38 0-.43.32-.43.6l-.21 3.18c0 1.35 2.48.28 2.49 3.58h-4.21c-2.16 0-2.69-1.62-3.07-2.76a15.66 15.66 0 0 1-.16-4.5c.22-2.06-1.47-5.6 1.2-6.41a5 5 0 0 1 3.09 1.47 66.68 66.68 0 0 0 15.1 8.3l.47-.92c-3.74-1.39-9-4.55-12.54-6.83 1.57-.92 5.35-7.19 8.32-7.88 2.75 0 12.65 9.5 14.83 13.14 2.47 4.09-.91 8.27-6.14 7.79zm29-22.63a16.72 16.72 0 0 1-.82 2.14s-3.9-5.82-7-10.41c1.06-2.21 3.17-2.75 6-.31a4.39 4.39 0 0 1 1.67 1.9c.32 2.56-.03 4.3.17 6.68zm-9-9.4C49.74 45.77 45 47 44 49.66a4.44 4.44 0 0 0-3.13-2.9 37.13 37.13 0 0 1 3.82-1.2 12.52 12.52 0 0 0 7.73-.29 18.38 18.38 0 0 0 7.31 1 10.36 10.36 0 0 0 .46 2c-3.29-2.15-6.19-1.67-7.87.6zM42 55.11c-1.26 3.62-4 12.07-4.8 14.24-1.18-1.18-4.05-3.87-4.05-3.87-1.41-3.53.29-6.75 2.52-9.41a1.48 1.48 0 0 0-.22-.6c-2 .9-3 5.18-6.62 6-1.36-1.19-3.53-2.59-4.55-3.38-.27-1.14-.24-6.43.62-6.86 4.84-2.13 11-3.69 13.54-3.37 5.16.27 4.84 3.64 3.56 7.25zm-10.36 9.25a23 23 0 0 0-2.1-2 5.71 5.71 0 0 0 2.12-.89 7.22 7.22 0 0 0-.02 2.89zM24.47 50a5 5 0 0 1-.65-.7c-.17-.84-.49-1.82-.71-2.79a15.2 15.2 0 0 0 4.89 2.2s-2 .74-3.53 1.29zm-1.29.71c.17.2.17.21.4.45a20.74 20.74 0 0 0-.75 7.09c-4.65 2.85-7.54 8.41-9 8.41-4.75-2.29-5.31-3.43-5.52-9.76 3.84.56 11.69-1.19 14.87-6.2zm29.88 23.72c-3.43-4.92-5.06-10.18-6.4-16 0 0-.37.5-.44.61.18 1.79.6 3.59.81 5.23.56 4.62-5.72 6.71-7.24 8.44-.52-.81-1.14-1.64-1.7-2.44 2.11-5.54 3.83-11 5.84-17 1.64-5.2 5.43-6.17 8.44-2.28a88.47 88.47 0 0 1 7.14 10.75c-.61.64-5.44 3.53-6.45 12.69zm15.84 5.34c-4.08.92-12.19.87-14.66-3.8a19.65 19.65 0 0 1 5.61-12.55c.4 3.8 2.29 6.4 4.55 7.38a21.75 21.75 0 0 0 10.75 1.34c-1.58 4.42-2.91 6.86-6.25 7.63zm13.47 0c-1.08 0-1.16-2.15-1.21-3.08-.15-4.65-1.36-8.21-1.67-13.2.79-2.49 3.45-10 2.3-18.82-.13 0-.58-.07-.83-.08.21 6.81-.4 12.51-2.48 17.46a81.35 81.35 0 0 0-2.86 8.68c-2 .57-7.77.13-10.93-1.39-2.4-1.52-3.19-3-3.55-6 0-1.91 1-3.06 1.46-4.71-.27-3.09.06-4.64 0-7.3a45.33 45.33 0 0 1-1.73-6.61c-2.83-.24-4.8.21-8.76-1.32-3 1.7-5.58.9-7.75.34-5.36 2-10.64 3.37-10.64 3.37-2.07.38-4.54 1-6.54.06-5.8-2.43-11.89-8.36-11.89-8.36-.09.17-.52.91-.6 1a64.27 64.27 0 0 0 6.89 5.79 16.27 16.27 0 0 1 1.1 4c-2.58 4.05-9.6 6.37-14.37 5.89-6.91-19.68.43-29.14 5.81-34.3.38-.84.9-2 1.28-2.81 0 0 4.58-.08 6.26-1.18 2.39-2 2.34-5.83 4.95-6.67a7.71 7.71 0 0 1 3.48-.22c.5.69-.32 2.48-.48 3.18a3.81 3.81 0 0 0-.05 2.51c.89 2.76-.79 1.58-1.72 2.49-.54.81-.64 3.09-1.94 3.14-1.6.1-2.92-.79-3.83-1.05.09.59.26 1.44.27 1.4 3.2.83 4.32 1.35 6.12 3.1 1.5.37 5.25 1.81 6.61 3.27.88-2.79 5-8.95 7.19-13.67a5.07 5.07 0 0 1 5.81-2.9 4.43 4.43 0 0 1 2.69 2.52c.27.6-.35 1.75-1 1.72s-3.2-.22-4.67-.22c-2.27 0-1.59 16-7.27 19-1.2.7-8.92-.88-11.1-2.38a21.43 21.43 0 0 1-1.63 2.25c-1.14-1.91-4.81-6.75-7.83-8.27-.23.15-.83.14-1.05.3.61.46 5.46 4.38 7.56 8.77 1 1 4.37 2.73 7.14 6.12 4.57-1 9.39 1.37 12.61-.57 2 .29 6.18.85 6.68.94.22-.19 1.35-2.23 2.17-3.31 1-.64 4.52-1.59 8.18-2.17 1.16-.59 4.1-1.68 4.8-2a6.13 6.13 0 0 0-.49-2.63 15.82 15.82 0 0 1-4-.21c-1.79-.49-1.13-2.71-1.57-4.12-.27-.55-1.66-.44-.86-1.88a11.08 11.08 0 0 0 1.57-5.3c.6-.54 2.22.06 2.5.71a26.9 26.9 0 0 1 .82 6.09 3.16 3.16 0 0 0 2.88 2.72c1.52.16 5.16.77 6.34.8.71 1 1 2 1.71 3.3 1.24.56 4.52 1 6.54 2.07A8.75 8.75 0 0 1 85 42.76c.6 6.46 0 9.12-.38 13.42 2 5.35-.19 16.28-.15 17.6 0 .77.11 2.77 1.32 3s3.18.07 4.39.67a2.37 2.37 0 0 1 1.43 2.3c-1.61.01-8.16.05-9.24.04zM42.34 40c-1.34 1.5-6.91-1-11 0-1.67-2.28-4.4-3.82-5.18-4.47.29-.49.48-.75.85-1.34 1 .67 6.27 2.06 10.53 2.23 1.63 0 3.79-3.09 3.79-3.09.25 1.97-.06 4.17 1.01 6.67z"/></svg>